<?xml version="1.0" encoding="UTF-8" standalone="no"?>
<!-- Created with Inkscape (http://www.inkscape.org/) -->

<svg
   xmlns:dc="http://purl.org/dc/elements/1.1/"
   xmlns:cc="http://creativecommons.org/ns#"
   xmlns:rdf="http://www.w3.org/1999/02/22-rdf-syntax-ns#"
   xmlns:svg="http://www.w3.org/2000/svg"
   xmlns="http://www.w3.org/2000/svg"
   xmlns:sodipodi="http://sodipodi.sourceforge.net/DTD/sodipodi-0.dtd"
   xmlns:inkscape="http://www.inkscape.org/namespaces/inkscape"
   width="67.73333mm"
   height="67.73333mm"
   viewBox="0 0 67.73333 67.73333"
   version="1.1"
   id="svg8"
   inkscape:version="0.92.4 (5da689c313, 2019-01-14)"
   sodipodi:docname="arrow2.svg">
  <defs
     id="defs2" />
  <sodipodi:namedview
     id="base"
     pagecolor="#ffffff"
     bordercolor="#666666"
     borderopacity="1.0"
     inkscape:pageopacity="0.0"
     inkscape:pageshadow="2"
     inkscape:zoom="0.98994949"
     inkscape:cx="-170.85593"
     inkscape:cy="126.60647"
     inkscape:document-units="mm"
     inkscape:current-layer="g26"
     showgrid="false"
     inkscape:window-width="2560"
     inkscape:window-height="1057"
     inkscape:window-x="1912"
     inkscape:window-y="-8"
     inkscape:window-maximized="1" />
  <metadata
     id="metadata5">
    <rdf:RDF>
      <cc:Work
         rdf:about="">
        <dc:format>image/svg+xml</dc:format>
        <dc:type
           rdf:resource="http://purl.org/dc/dcmitype/StillImage" />
        <dc:title></dc:title>
      </cc:Work>
    </rdf:RDF>
  </metadata>
  <g
     inkscape:label="Capa 1"
     inkscape:groupmode="layer"
     id="layer1"
     transform="translate(-14.514286,-96.067858)">
    <g
       id="g26"
       transform="matrix(0.26458333,0,0,0.26458333,14.249702,95.803273)">
      <path
         id="path10"
         d="m 27.444836,39.076897 c -4.30159,7.442459 -3.874163,14.93951 -0.54896,22.625141 8.220049,18.999218 16.465986,37.990307 24.349409,57.129702 1.720879,4.17795 5.428913,8.07771 3.087231,13.4485 -8.535427,19.57653 -17.016548,39.17801 -25.316508,58.85515 -2.633699,6.24385 -5.217098,12.32825 -4.268585,19.7462 2.129179,16.65146 20.887732,25.21427 34.138273,18.69891 28.101601,-13.81768 56.257314,-27.52732 84.271054,-41.52104 23.97045,-11.97397 47.70769,-24.4153 71.69609,-36.35246 6.26642,-3.11832 10.42069,-7.53918 13.25133,-13.82893 5.16901,-11.48566 -2.91316,-25.32113 -10.49658,-29.09139 C 164.7046,82.484772 111.89942,55.986084 59.068745,29.538782 47.846519,23.920879 34.325817,27.766073 27.444836,39.076897 Z"
         inkscape:connector-curvature="0"
         style="opacity:1;fill:#ffe6d5;stroke:none"
         sodipodi:nodetypes="cssssssscsssc" />
      <path
         id="path12"
         d="M 27.66468,38.765587 C 34.325817,27.766073 47.846519,23.920879 59.068745,29.538782 111.89942,55.986084 164.7046,82.484772 217.60759,108.78668 c 7.58342,3.77026 15.66559,17.60573 10.49658,29.09139 -2.83064,6.28975 -6.98491,10.71061 -13.25133,13.82893 -23.9884,11.93716 -47.72564,24.37849 -71.69609,36.35246 -28.01374,13.99372 -56.169453,27.70336 -84.271054,41.52104 -13.250541,6.51536 -32.009094,-2.04745 -34.138273,-18.69891 -0.948513,-7.41795 1.634886,-13.50235 4.268585,-19.7462 8.29996,-19.67714 16.781081,-39.27862 25.316508,-58.85515 2.341682,-5.37079 -1.366352,-9.27055 -3.087231,-13.4485 C 43.361862,99.692345 35.115925,80.701256 26.895876,61.702038 23.570673,54.016407 23.143246,46.519356 27.66468,38.765587 m 48.102593,82.230273 c 11.828964,8.8e-4 23.65802,-0.0243 35.486867,0.0132 6.31164,0.02 9.8131,3.00722 9.71755,8.14371 -0.0913,4.91096 -3.54833,7.81296 -9.54196,7.83447 -12.162098,0.0436 -24.327061,0.15706 -36.485119,-0.0676 -3.585244,-0.0662 -5.261834,1.23451 -6.607659,4.43204 -8.463173,20.10745 -17.082077,40.14972 -25.732128,60.17784 -1.774239,4.10806 -2.684879,8.04781 1.070839,11.44992 3.55019,3.2159 7.289333,2.10909 11.113487,0.1937 50.63211,-25.36005 101.28301,-50.68258 151.9457,-75.98148 3.47236,-1.73396 6.28206,-3.81982 6.30487,-8.14896 0.0228,-4.3312 -2.7555,-6.473 -6.22643,-8.20645 C 156.00284,95.460526 105.19991,70.069786 54.41394,44.645149 c -3.888416,-1.946625 -7.63388,-2.688251 -11.048439,0.647896 -3.25407,3.17934 -2.627094,6.853176 -1.000969,10.629082 8.760846,20.342949 17.552113,40.673607 26.129883,61.093773 1.330704,3.16785 3.084091,4.47789 7.272858,3.97996 z"
         inkscape:connector-curvature="0"
         style="opacity:1;fill:#0751ad;stroke:none" />
      <path
         id="path14"
         d="m 75.30545,120.99509 c -3.726944,0.4987 -5.480331,-0.81134 -6.811035,-3.97919 -8.57777,-20.420166 -17.369037,-40.750824 -26.129883,-61.093773 -1.626125,-3.775906 -2.253101,-7.449742 1.000969,-10.629082 3.414559,-3.336147 7.160023,-2.594521 11.048439,-0.647896 50.78597,25.424637 101.5889,50.815377 152.39935,76.191061 3.47093,1.73345 6.24926,3.87525 6.22643,8.20645 -0.0228,4.32914 -2.83251,6.415 -6.30487,8.14896 -50.66269,25.2989 -101.31359,50.62143 -151.9457,75.98148 -3.824154,1.91539 -7.563297,3.0222 -11.113487,-0.1937 -3.755718,-3.40211 -2.845078,-7.34186 -1.070839,-11.44992 8.650051,-20.02812 17.268955,-40.07039 25.732128,-60.17784 1.345825,-3.19753 3.022415,-4.49828 6.607659,-4.43204 12.158058,0.22467 24.323021,0.11125 36.485119,0.0676 5.99363,-0.0215 9.45062,-2.92351 9.54196,-7.83447 0.0956,-5.13649 -3.40591,-8.12369 -9.71755,-8.14371 -11.828847,-0.0375 -23.657903,-0.0123 -35.94869,-0.0139 z"
         inkscape:connector-curvature="0"
         style="opacity:1;fill:#57a4ff;stroke:none" />
    </g>
  </g>
</svg>
