<?xml version="1.0" encoding="UTF-8" standalone="no"?>
<!-- Created with Inkscape (http://www.inkscape.org/) -->

<svg
   xmlns:dc="http://purl.org/dc/elements/1.1/"
   xmlns:cc="http://creativecommons.org/ns#"
   xmlns:rdf="http://www.w3.org/1999/02/22-rdf-syntax-ns#"
   xmlns:svg="http://www.w3.org/2000/svg"
   xmlns="http://www.w3.org/2000/svg"
   xmlns:sodipodi="http://sodipodi.sourceforge.net/DTD/sodipodi-0.dtd"
   xmlns:inkscape="http://www.inkscape.org/namespaces/inkscape"
   width="135.46703mm"
   height="27.439396mm"
   viewBox="0 0 135.46703 27.439396"
   version="1.1"
   id="svg8"
   inkscape:version="0.92.4 (5da689c313, 2019-01-14)"
   sodipodi:docname="avax_name.svg">
  <defs
     id="defs2"><style
   id="style3713"
   type="text/css">
   <![CDATA[
    .fil1 {fill:#E84142}
    .fil0 {fill:black;fill-rule:nonzero}
   ]]>
  </style>

  
  
 </defs>
  <sodipodi:namedview
     id="base"
     pagecolor="#ffffff"
     bordercolor="#666666"
     borderopacity="1.0"
     inkscape:pageopacity="0.0"
     inkscape:pageshadow="2"
     inkscape:zoom="3.959798"
     inkscape:cx="238.6733"
     inkscape:cy="42.294684"
     inkscape:document-units="mm"
     inkscape:current-layer="Avalanche_x0020_Logo.cdr"
     showgrid="false"
     inkscape:window-width="2560"
     inkscape:window-height="1057"
     inkscape:window-x="1912"
     inkscape:window-y="-8"
     inkscape:window-maximized="1" />
  <metadata
     id="metadata5">
    <rdf:RDF>
      <cc:Work
         rdf:about="">
        <dc:format>image/svg+xml</dc:format>
        <dc:type
           rdf:resource="http://purl.org/dc/dcmitype/StillImage" />
        <dc:title></dc:title>
      </cc:Work>
    </rdf:RDF>
  </metadata>
  <g
     inkscape:label="Capa 1"
     inkscape:groupmode="layer"
     id="layer1"
     transform="translate(-446.58924,-97.316016)">
    <g
       style="clip-rule:evenodd;fill-rule:evenodd;image-rendering:optimizeQuality;shape-rendering:geometricPrecision;text-rendering:geometricPrecision"
       id="Layer_x0020_1"
       transform="matrix(0.00999978,0,0,0.00999978,441.77839,97.316016)">
  <metadata
   id="CorelCorpID_0Corel-Layer" />

 </g>
    <g
       style="clip-rule:evenodd;fill-rule:evenodd;image-rendering:optimizeQuality;shape-rendering:geometricPrecision;text-rendering:geometricPrecision"
       id="Avalanche_x0020_Logo.cdr"
       transform="matrix(0.00999978,0,0,0.00999978,446.58924,97.316016)">
   
   
   
   
   
   
   
   
   
   <g
   id="g3814">
  <g
     style="fill:#ffffff;fill-opacity:1"
     id="g3801">
    <path
       id="path3720"
       d="m 3664,893 h 147 l 412,957 h -195 l -89,-219 h -415 l -86,219 h -191 l 416,-957 z m 216,592 v 0 l -147,-389 -150,389 z"
       class="fil0"
       inkscape:connector-curvature="0"
       style="fill:#ffffff;fill-opacity:1;fill-rule:nonzero" />
    <polygon
       id="polygon3722"
       points="4863,1616 5132,893 5316,893 4929,1850 4782,1850 4406,893 4602,893 "
       class="fil0"
       style="fill:#ffffff;fill-opacity:1;fill-rule:nonzero" />
    <path
       id="path3724"
       d="m 5924,893 h 147 l 412,957 h -195 l -89,-219 h -415 l -86,219 h -190 z m 216,592 v 0 l -147,-389 -150,389 z"
       class="fil0"
       inkscape:connector-curvature="0"
       style="fill:#ffffff;fill-opacity:1;fill-rule:nonzero" />
    <polygon
       id="polygon3726"
       points="7437,1696 7437,1850 6860,1850 6860,893 7030,893 7030,1696 "
       class="fil0"
       style="fill:#ffffff;fill-opacity:1;fill-rule:nonzero" />
    <path
       id="path3728"
       d="m 8140,893 h 147 l 412,957 h -195 l -89,-219 h -415 l -86,219 h -190 z m 216,592 v 0 l -147,-389 -150,389 z"
       class="fil0"
       inkscape:connector-curvature="0"
       style="fill:#ffffff;fill-opacity:1;fill-rule:nonzero" />
    <polygon
       id="polygon3730"
       points="9246,1116 9246,1850 9076,1850 9076,893 9302,893 9765,1604 9768,1604 9768,893 9938,893 9938,1850 9722,1850 9249,1116 "
       class="fil0"
       style="fill:#ffffff;fill-opacity:1;fill-rule:nonzero" />
    <path
       id="path3732"
       d="m 11078,1117 c -35,-38 -69,-63 -103,-76 -32,-13 -65,-19 -99,-19 -50,0 -95,9 -135,27 -40,17 -74,41 -103,73 -29,31 -51,67 -68,108 -15,41 -23,86 -23,134 0,51 8,99 23,142 16,43 39,81 68,112 29,32 63,56 103,74 41,18 86,27 135,27 39,0 76,-9 112,-27 37,-19 71,-49 103,-89 l 140,100 c -43,59 -96,103 -158,130 -62,27 -128,41 -199,41 -74,0 -142,-12 -204,-35 -61,-24 -114,-58 -159,-101 -44,-44 -79,-97 -104,-158 -25,-61 -38,-129 -38,-204 0,-77 13,-146 38,-208 25,-63 60,-117 104,-161 45,-44 98,-78 159,-101 62,-24 130,-36 204,-36 65,0 125,12 180,35 56,23 108,61 155,116 l -132,97 z"
       class="fil0"
       inkscape:connector-curvature="0"
       style="fill:#ffffff;fill-opacity:1;fill-rule:nonzero" />
    <polygon
       id="polygon3734"
       points="11787,1428 11787,1850 11617,1850 11617,893 11787,893 11787,1274 12234,1274 12234,893 12405,893 12405,1850 12234,1850 12234,1428 "
       class="fil0"
       style="fill:#ffffff;fill-opacity:1;fill-rule:nonzero" />
    <polygon
       id="polygon3736"
       points="13547,1696 13547,1850 12889,1850 12889,893 13522,893 13522,1047 13059,1047 13059,1282 13498,1282 13498,1436 13059,1436 13059,1696 "
       class="fil0"
       style="fill:#ffffff;fill-opacity:1;fill-rule:nonzero" />
  </g>
  <path
     style="fill:#e84142"
     inkscape:connector-curvature="0"
     class="fil1"
     d="m 2744,1372 c 0,758 -614,1372 -1372,1372 C 614,2744 0,2130 0,1372 0,614 614,0 1372,0 2130,0 2744,614 2744,1372 Z M 983,1918 v 0 H 717 c -56,0 -84,0 -100,-11 -18,-12 -29,-31 -31,-53 -1,-20 13,-44 40,-93 L 1284,602 c 28,-49 42,-74 60,-83 19,-10 42,-10 61,0 18,9 32,34 60,83 l 135,236 1,1 c 30,53 46,80 52,108 7,31 7,63 0,94 -7,28 -22,55 -53,109 l -345,611 -1,2 c -30,53 -46,80 -67,101 -23,22 -51,38 -82,48 -28,8 -59,8 -122,8 z m 672,0 v 0 h 382 c 56,0 85,0 101,-11 18,-12 30,-32 31,-53 1,-19 -13,-43 -39,-88 -1,-2 -2,-3 -3,-5 l -191,-327 -2,-4 c -27,-45 -40,-68 -58,-77 -19,-10 -42,-10 -61,0 -18,9 -32,33 -60,81 l -190,327 -1,1 c -28,48 -42,72 -41,92 1,22 12,41 31,53 17,11 45,11 101,11 z"
     id="path3738" />
</g>

  </g>
  </g>
</svg>
