<?xml version="1.0" encoding="UTF-8" standalone="no"?>
<!-- Created with Inkscape (http://www.inkscape.org/) -->

<svg
   xmlns:dc="http://purl.org/dc/elements/1.1/"
   xmlns:cc="http://creativecommons.org/ns#"
   xmlns:rdf="http://www.w3.org/1999/02/22-rdf-syntax-ns#"
   xmlns:svg="http://www.w3.org/2000/svg"
   xmlns="http://www.w3.org/2000/svg"
   xmlns:sodipodi="http://sodipodi.sourceforge.net/DTD/sodipodi-0.dtd"
   xmlns:inkscape="http://www.inkscape.org/namespaces/inkscape"
   version="1.1"
   id="svg10"
   width="889.79999"
   height="558.39996"
   viewBox="0 0 889.79999 558.39996"
   sodipodi:docname="goose_animation.svg"
   inkscape:version="0.92.4 (5da689c313, 2019-01-14)"
   inkscape:export-filename="C:\Users\SNABUR\Pictures\goose_vector.png"
   inkscape:export-xdpi="42.290386"
   inkscape:export-ydpi="42.290386">
  <metadata
     id="metadata16">
    <rdf:RDF>
      <cc:Work
         rdf:about="">
        <dc:format>image/svg+xml</dc:format>
        <dc:type
           rdf:resource="http://purl.org/dc/dcmitype/StillImage" />
        <dc:title />
      </cc:Work>
    </rdf:RDF>
  </metadata>
  <defs
     id="defs14" />
  <sodipodi:namedview
     pagecolor="#ffffff"
     bordercolor="#666666"
     borderopacity="1"
     objecttolerance="10"
     gridtolerance="10"
     guidetolerance="10"
     inkscape:pageopacity="0"
     inkscape:pageshadow="2"
     inkscape:window-width="2560"
     inkscape:window-height="1057"
     id="namedview12"
     showgrid="true"
     showguides="false"
     inkscape:zoom="1.4218995"
     inkscape:cx="593.16471"
     inkscape:cy="252.18002"
     inkscape:window-x="1912"
     inkscape:window-y="-8"
     inkscape:window-maximized="1"
     inkscape:current-layer="svg10">
    <inkscape:grid
       type="xygrid"
       id="grid22"
       originx="0"
       originy="338.39998" />
  </sodipodi:namedview>
  <path
     style="fill:#806600;stroke-width:0.31999999"
     d="m 215.8901,238.56723 c -0.3713,-0.47204 -0.5977,-1.05974 -0.5032,-1.306 0.094,-0.24625 -0.044,-0.75608 -0.3082,-1.13294 -0.2639,-0.37686 -0.4799,-0.98491 -0.4799,-1.35123 0,-0.36631 -0.5025,-1.15307 -1.1167,-1.74834 -0.6403,-0.62065 -1.2018,-1.53618 -1.3162,-2.14631 -0.1098,-0.58519 -0.3163,-1.13609 -0.4589,-1.22422 -0.1426,-0.0881 -0.4909,-0.85763 -0.774,-1.71002 -0.4454,-1.34097 -0.632,-1.55124 -1.3845,-1.56062 -2.7549,-0.0343 -2.9971,-0.13458 -3.9483,-1.6345 -0.5068,-0.79907 -0.9266,-1.74867 -0.9329,-2.11021 -0.01,-0.36154 -0.3791,-1.08935 -0.8284,-1.61735 -0.589,-0.69209 -0.7166,-0.75907 -0.4573,-0.24 0.5141,1.02897 0.1298,0.89092 -1.1295,-0.40582 -1.1468,-1.18092 -1.4328,-1.95293 -0.6059,-1.63561 0.394,0.15117 0.4243,0.0691 0.1583,-0.42795 -0.181,-0.33823 -0.4724,-0.70349 -0.6474,-0.81168 -0.1751,-0.10819 -0.3183,-0.76421 -0.3183,-1.45782 0,-1.12647 -0.084,-1.26112 -0.7874,-1.26112 -0.433,0 -0.9395,-0.18 -1.1254,-0.4 -1.1441,-1.35365 -3.5272,-4.74454 -3.5272,-5.01881 0,-0.17993 -0.504,-1.40365 -1.12,-2.71937 -0.616,-1.31572 -1.12,-2.46811 -1.12,-2.56087 0,-0.0928 -0.5569,-1.35941 -1.2376,-2.8148 -0.6807,-1.45538 -1.5644,-3.36615 -1.9638,-4.24615 -2.1894,-4.82387 -3.4878,-7.46322 -3.752,-7.62646 -0.1633,-0.10098 -1.7977,-0.27811 -3.6318,-0.39364 -1.8341,-0.11552 -3.9108,-0.25495 -4.6148,-0.30984 -3.5916,-0.28002 -7.4954,-0.55469 -8.5984,-0.60497 -0.8487,-0.0387 -1.6039,-0.35905 -2.4,-1.01801 -1.0545,-0.87293 -1.6182,-1.02892 -6.1148,-1.69222 -2.7242,-0.40186 -5.1987,-0.8621 -5.4989,-1.02276 -0.3002,-0.16065 -0.9873,-0.2921 -1.5269,-0.2921 -0.5395,0 -0.981,-0.1272 -0.981,-0.28267 0,-0.15548 -0.288,-0.358 -0.64,-0.45005 -1.9486,-0.50956 0.027,-1.40063 8.32,-3.75193 1.32,-0.37427 2.688,-0.7998 3.04,-0.94563 0.352,-0.14582 1.072,-0.41107 1.6,-0.58944 6.9295,-2.34097 9.3644,-3.55573 14.376,-7.1721 1.0428,-0.7525 2.0508,-1.42471 2.24,-1.4938 0.1892,-0.0691 0.7724,-0.42598 1.296,-0.79308 2.535,-1.77725 7.0594,-3.57903 11.0342,-4.3942 1.6902,-0.34664 8.8731,-0.10499 11.0939,0.37322 0.858,0.18475 2.3519,0.47837 3.3199,0.65249 0.968,0.17412 2.01,0.45397 2.3157,0.62189 0.3056,0.16792 0.7993,0.3053 1.0972,0.3053 0.2979,0 0.9839,0.14084 1.5244,0.31297 3.5801,1.14017 5.2234,1.68116 5.7827,1.9037 2.2176,0.88239 3.465,1.07517 6.5572,1.01338 1.8495,-0.037 3.8668,-0.12382 4.4828,-0.19301 0.616,-0.0692 3.1491,-0.22473 5.629,-0.34565 4.1158,-0.20068 4.6977,-0.15887 6.6732,0.47933 2.4191,0.78152 3.7819,1.65697 4.2795,2.74901 0.2826,0.62043 3.2781,2.37456 4.1185,2.41178 0.1429,0.006 0.6638,0.34209 1.1575,0.74613 1.2873,1.05346 0.5993,1.46345 -2.695,1.60593 -1.4755,0.0638 -3.6187,0.36852 -4.7627,0.67714 -2.4536,0.66193 -6.879,0.77406 -7.9334,0.20102 -1.028,-0.5587 -3.71,-0.51268 -6.3066,0.10821 -1.8131,0.43355 -7.0284,2.15037 -7.8974,2.59974 -1.2926,0.66842 -2.4001,2.34408 -2.6242,3.97032 -0.1891,1.37221 0.7291,5.95684 1.6824,8.4 0.1889,0.484 0.2785,0.88 0.1992,0.88 -0.079,0 0.01,0.396 0.1963,0.88 0.1873,0.484 0.388,1.096 0.4459,1.36 0.058,0.264 0.5625,2.208 1.1211,4.32 0.5586,2.112 1.0719,4.128 1.1406,4.48 0.069,0.352 0.2744,1.36 0.4572,2.24 0.1829,0.88 0.4072,1.96 0.4985,2.4 0.6362,3.06526 0.9135,22.1534 0.3416,23.52 -0.1473,0.352 -0.2888,1.432 -0.3145,2.4 l -0.047,1.76 -1.2781,0.16 c -1.1207,0.1403 -1.2983,0.27775 -1.4425,1.11609 -0.2517,1.46438 -1.1306,1.39841 -2.7466,-0.20614 -0.77,-0.76447 -1.4037,-1.60595 -1.4083,-1.86995 -0.011,-0.60475 -0.7909,0.86486 -1.0882,2.04957 -0.1856,0.73937 -0.3015,0.82145 -0.6968,0.49341 -0.3912,-0.32469 -0.4389,-0.30165 -0.2726,0.13176 0.2997,0.78081 -0.053,0.63701 -0.8155,-0.333 z m 8.1487,-3.80476 c 0.7884,-0.67534 0.7026,-0.65005 -0.48,0.14146 -0.792,0.53009 -1.872,1.34379 -2.4,1.80823 -0.8078,0.71053 -0.7317,0.6881 0.48,-0.14147 0.792,-0.54224 1.872,-1.35594 2.4,-1.80822 z m -17.12,-9.51481 c 0,-0.0538 -0.36,-0.58578 -0.8,-1.18217 -0.44,-0.59639 -0.8,-0.97853 -0.8,-0.84921 0,0.12932 0.3151,0.6613 0.7002,1.18217 0.6396,0.86513 0.8998,1.1107 0.8998,0.84921 z m -156.7651,1.01318 c -0.7728,-0.14155 -1.5179,-0.18764 -1.6558,-0.10241 -0.1379,0.0852 -1.7376,-0.0685 -3.5549,-0.34154 -1.8173,-0.27307 -3.8082,-0.50563 -4.4242,-0.51682 -0.616,-0.0112 -3.5151,-0.36783 -6.4425,-0.79256 -2.9273,-0.42473 -6.5052,-0.84201 -7.9508,-0.92729 -1.4456,-0.0853 -2.7504,-0.23052 -2.8997,-0.32277 -0.1493,-0.0922 -1.3954,-0.22892 -2.7692,-0.30371 -2.0766,-0.11306 -2.5922,-0.25262 -3.0578,-0.82757 -0.308,-0.38037 -0.56,-0.89614 -0.56,-1.14615 0,-0.31192 -0.3264,-0.43561 -1.04,-0.39415 -1.5782,0.0917 -5.1481,-0.38973 -5.6,-0.7552 -0.951,-0.76924 -0.4135,-1.36103 1.7611,-1.9389 1.1874,-0.31554 2.5909,-0.70547 3.1189,-0.8665 1.6187,-0.49366 6.0247,-1.61906 7.04,-1.79821 0.528,-0.0932 1.248,-0.22328 1.6,-0.28915 0.352,-0.0659 1.144,-0.19413 1.76,-0.28502 0.7561,-0.11156 6.24,-1.11988 6.24,-1.14734 0,-4e-5 0,-4.80986 0,-10.6885 0,-9.92138 -0.039,-10.66775 -0.539,-10.4 -0.2964,0.15864 -0.8999,0.28844 -1.3411,0.28844 -0.4412,0 -0.8911,0.144 -0.9999,0.32 -0.1088,0.176 -0.4821,0.32 -0.8295,0.32 -0.7798,0 -3.6804,1.44218 -4.0325,2.00491 -0.1419,0.22679 -0.906,0.91024 -1.698,1.51877 -0.792,0.60854 -1.584,1.28077 -1.76,1.49386 -0.9823,1.18928 -2.8143,0.64183 -3.2124,-0.95991 -0.3101,-1.24774 1.7177,-4.73264 3.8222,-6.56881 1.0394,-0.90685 2.068,-1.64882 2.2858,-1.64882 0.2177,0 0.4788,-0.216 0.5801,-0.48 0.1013,-0.264 0.3927,-0.48 0.6476,-0.48 0.2549,0 0.5114,-0.11507 0.57,-0.25572 0.1253,-0.30033 5.2724,-3.74449 7.1386,-4.77675 7.5821,-4.19384 11.0148,-4.91816 23.7657,-5.01462 6.5534,-0.0496 6.5496,-0.0516 6.5359,3.41894 l -0.01,2.44149 1.6581,-0.67472 c 5.0609,-2.05953 8.538,-2.26377 8.538,-0.50153 0,0.75622 -1.3496,3.13621 -2.8596,5.04291 -1.5545,1.96285 -2.3828,3.16962 -3.0157,4.39345 -0.6735,1.30245 -0.4941,2.61452 0.9861,7.21392 1.2638,3.92712 1.0619,3.74354 5.6892,5.172 1.584,0.48898 3.13,1.01767 3.4356,1.17485 0.3057,0.15718 0.7756,0.28578 1.0444,0.28578 0.2688,0 0.7387,0.12642 1.0443,0.28094 2.8468,1.43931 2.9625,1.43788 7.5418,-0.0935 1.3784,-0.46094 3.0344,-0.9186 3.68,-1.01702 0.6456,-0.0984 1.5339,-0.24196 1.9739,-0.31897 2.8925,-0.5063 8.014,-0.68004 9.44,-0.32024 1.8269,0.46095 3.5634,1.47397 5.2605,3.06877 1.147,1.07795 3.1524,2.51764 4.6595,3.34512 1.7169,0.94275 2.72,1.7244 2.72,2.11966 0,0.33748 -1.8713,0.89026 -3.04,0.89804 -0.528,0.004 -2.04,-0.14773 -3.36,-0.33609 -5.1695,-0.73769 -14.6086,-0.22228 -19.813,1.08186 -1.5547,0.38957 -4.7437,1.98629 -10.2058,5.10996 -2.6158,1.49594 -9.123,4.64744 -10.6857,5.1752 -1.575,0.53194 -2.1685,0.67048 -5.0555,1.18023 -2.0343,0.35917 -10.056,0.32039 -12.1251,-0.0586 z m 147.0851,-12.9056 c -0.308,-0.42357 -0.56,-0.86868 -0.56,-0.98912 0,-0.33733 0.9562,0.53437 1.3087,1.19306 0.4547,0.84949 -0.091,0.70094 -0.7487,-0.20394 z M 354,179.99998 c -0.07,-0.0702 -1.6203,-0.18862 -3.4445,-0.26307 -5.4323,-0.22169 -8.5074,-0.43754 -9.4594,-0.66396 -1.0748,-0.25563 -2.0173,-1.01775 -2.0173,-1.6312 0,-0.35578 -0.4633,-0.40707 -2.32,-0.25686 -2.6917,0.21775 -8.4617,1.03044 -10.32,1.45353 -2.0014,0.45568 -4.2564,0.36351 -5.1313,-0.20973 -0.4337,-0.28424 -0.7887,-0.62024 -0.7887,-0.74667 0,-0.65201 2.5469,-2.63132 4.2772,-3.32399 1.085,-0.43437 2.8345,-1.17908 3.8878,-1.65492 3.9716,-1.79428 4.8124,-2.1652 5.435,-2.39762 0.352,-0.1314 1.288,-0.53587 2.08,-0.89882 0.792,-0.36294 2.3628,-1.06518 3.4906,-1.56053 1.1278,-0.49536 3.5038,-1.63326 5.28,-2.52867 5.1688,-2.60569 5.3136,-3.40322 2.5516,-14.05198 -0.5112,-1.9711 -1.3106,-5.26279 -1.5542,-6.4 -0.075,-0.352 -0.3694,-1.504 -0.6534,-2.55999 -0.5743,-2.13517 -1.1124,-4.22924 -1.2746,-4.96 -0.059,-0.264 -0.2539,-1.056 -0.4339,-1.76 -0.1801,-0.704 -0.5707,-2.288 -0.8681,-3.52 -0.3126,-1.29564 -0.9083,-2.71219 -1.413,-3.36 -1.6132,-2.07108 -1.8538,-3.11904 -1.1231,-4.89192 0.1426,-0.34599 0.052,-0.78844 -0.2294,-1.12 -0.5523,-0.65066 -1.5325,-2.73074 -1.5325,-3.2519 0,-0.20191 0.2688,-0.92338 0.5973,-1.60328 0.5906,-1.22253 0.5899,-1.24352 -0.069,-1.902 -0.8544,-0.85437 -0.9014,-3.55222 -0.089,-5.09388 0.3748,-0.71115 0.4572,-1.18778 0.2488,-1.44 -0.1713,-0.20736 -0.407,-0.88808 -0.5237,-1.51272 -0.1915,-1.02522 -0.09,-1.25393 1.0399,-2.35084 l 1.252,-1.21513 -0.5397,-1.96916 c -0.7295,-2.66182 -0.9765,-4.36916 -0.6322,-4.36916 0.5181,0 2.0589,0.76645 3.1237,1.55379 0.5768,0.4265 1.114,0.7101 1.1939,0.63021 0.08,-0.0799 -0.2928,-1.50396 -0.8282,-3.16462 -0.5353,-1.660664 -1.0264,-3.307384 -1.0912,-3.659384 -0.065,-0.352 -0.2169,-0.964 -0.3379,-1.36 -0.3824,-1.25142 0.3612,-0.79878 2.3027,1.40165 1.0295,1.16691 2.3393,2.642914 2.9104,3.280004 0.5712,0.63709 1.0392,1.26635 1.04,1.39835 0,0.132 0.1623,0.24 0.3589,0.24 0.2224,0 0.2742,-0.27183 0.1373,-0.72 -0.1211,-0.396 -0.2798,-1.008 -0.3527,-1.36 -0.073,-0.352004 -0.2796,-1.288004 -0.4592,-2.080004 -0.8583,-3.78449 -0.9711,-5.24017 -0.5145,-6.64 0.3294,-1.00986 0.9517,-0.89871 2.2528,0.40237 1.0209,1.0209 1.8211,2.47718 3.0759,5.59763 0.4499,1.11854 0.4511,1.11521 0.9929,-2.56 0.2983,-2.024 0.5532,-3.86 0.5663,-4.08 0.013,-0.22 0.2854,-0.4 0.605,-0.4 0.4038,0 0.8551,0.61035 1.4789,2 0.4937,1.1 0.9963,2.216 1.1167,2.48 0.1206,0.264 0.6314,1.73664 1.1353,3.27253 0.8818,2.688124 0.947,2.784934 1.742,2.589384 0.4543,-0.11173 1.134,-0.40248 1.5105,-0.64611 l 0.6846,-0.442964 -0.741,-1.53584 c -1.0915,-2.26274 -1.8064,-4.97342 -1.5651,-5.93478 0.2397,-0.95513 1.0012,-1.46222 2.1959,-1.46222 0.4516,0 0.8368,-0.108 0.8561,-0.24 0.019,-0.132 0.09,-1.16227 0.1561,-2.28948 0.067,-1.12722 0.1876,-2.11594 0.2688,-2.19717 0.081,-0.0812 0.839,0.50072 1.6839,1.29323 3.5485,3.32853 4.3819,4.05437 4.5089,3.92733 0.074,-0.0737 -0.1109,-0.611 -0.4102,-1.19396 -0.6906,-1.34493 -2.7226,-7.15545 -2.7226,-7.7853 0,-1.05925 1.4745,-0.45779 3.0931,1.2617 l 1.6344,1.73635 0.1261,-3.13898 c 0.1318,-3.28189 0.5849,-4.51892 1.4057,-3.83772 0.4841,0.40174 2.1092,3.74067 3.8081,7.824 0.659,1.584 1.3846,3.312 1.6125,3.84 0.2278,0.528 0.8744,2.112 1.4368,3.52 0.5624,1.408 1.212,2.992 1.4435,3.52 0.2315,0.528 0.6674,1.608 0.9687,2.4 0.3013,0.792004 0.6573,1.728004 0.7911,2.080004 0.1339,0.352 0.4881,1.288 0.7872,2.08 0.2991,0.792 0.7483,1.84767 0.9983,2.34593 0.25,0.49826 0.4545,1.0525 0.4545,1.23164 0,0.17914 0.2019,0.77947 0.4486,1.33406 0.2467,0.5546 0.8381,2.08837 1.3141,3.40837 0.4761,1.32 1.0744,2.796 1.3296,3.28 0.2551,0.484 0.3889,0.88 0.2972,0.88 -0.092,0 0.1182,0.66473 0.4665,1.47718 0.9752,2.27515 2.2571,6.23781 2.4206,7.48281 0.1583,1.20509 -0.3748,5.19186 -0.8343,6.24 -0.5297,1.20829 -2.1671,13.74196 -2.04,15.61621 0.069,1.02091 0.4116,3.82891 0.761,6.24 0.3494,2.41108 0.6367,4.52778 0.6385,4.70378 0,0.29886 1.4398,1.12 1.9597,1.12 0.1287,0 1.1672,0.432 2.308,0.96 1.1407,0.528 2.3028,0.96 2.5823,0.96 0.2795,0 0.5082,0.12421 0.5082,0.27602 0,0.1518 3.06,0.23979 6.8,0.19552 6.4683,-0.0766 11.454,-0.60541 13.4506,-1.42672 1.326,-0.54546 5.4563,-1.31817 7.2462,-1.35563 3.5654,-0.0746 4.3422,0.2388 7.2235,2.91476 1.4537,1.35005 3.444,2.84686 4.423,3.32623 2.0665,1.01185 2.3908,1.39291 1.7396,2.04408 -0.7147,0.71477 -2.5785,1.05763 -6.6429,1.22205 -12.5612,0.50815 -13.9661,0.58282 -17.92,0.95257 -1.144,0.10698 -2.584,0.35411 -3.2,0.54916 -1.3479,0.42682 -5.626,2.49333 -7.84,3.787 -2.9988,1.75236 -12.4707,6.33987 -16.015,7.75657 -1.9442,0.77715 -4.6802,1.66741 -6.08,1.97836 -1.3997,0.31096 -2.9197,0.67977 -3.3777,0.81958 -0.8229,0.25122 -22.8793,0.34177 -23.1261,0.0949 z M 111.4848,155.33727 c -0.2631,-0.30348 -0.7355,-1.24048 -1.0497,-2.08223 -0.6496,-1.74038 -0.991,-2.08831 -1.2497,-1.2734 -0.099,0.31099 -0.469,0.7463 -0.823,0.96736 -1.3466,0.84099 -2.4381,-0.81942 -2.7919,-4.24729 -0.1611,-1.56098 -0.2941,-1.81245 -1.2608,-2.38279 -1.2663,-0.74712 -1.6243,-1.53955 -1.8044,-3.99368 -0.1363,-1.85753 -0.725,-2.70776 -1.8902,-2.72957 -0.8444,-0.0158 -2.1433,-1.97918 -2.7905,-4.21789 -0.4868,-1.6843 -2.0658,-5.98574 -3.2128,-8.75228 -0.1459,-0.352 -0.5139,-1.36 -0.8177,-2.24 -0.3039,-0.88 -0.726,-1.888 -0.938,-2.24 -0.2121,-0.352 -0.5771,-1.36 -0.8111,-2.24 -0.234,-0.88 -0.5335,-1.744 -0.6655,-1.92 -0.132,-0.176 -0.7742,-1.688 -1.427,-3.36 -0.6529,-1.67199 -1.373,-3.47199 -1.6002,-3.99999 -0.2272,-0.528 -0.6627,-1.64506 -0.9677,-2.48236 -0.6422,-1.76304 -1.2477,-1.63095 -1.5338,0.33461 -0.2738,1.88051 -0.9996,4.802 -1.257,5.0594 -0.1292,0.12925 -0.235,0.64496 -0.235,1.14601 0,0.50106 -0.1383,1.16106 -0.3073,1.46667 -0.285,0.51509 -1.4824,4.96334 -1.8294,6.79566 -0.083,0.44 -0.2738,1.088 -0.4233,1.44 -0.1495,0.352 -0.3446,1 -0.4336,1.44 -0.1915,0.94642 -0.8625,3.40467 -2.1839,8 -0.1771,0.616 -0.3965,1.58933 -0.4876,2.16296 -0.091,0.57363 -0.2937,1.12213 -0.4502,1.21889 -0.1566,0.0967 -0.2847,0.48119 -0.2847,0.85431 0,0.7205 -0.5322,2.59497 -0.9993,3.51949 -0.1544,0.30562 -0.2807,0.90912 -0.2807,1.34112 0,0.432 -0.144,0.87445 -0.32,0.98322 -0.176,0.10878 -0.32,0.44857 -0.32,0.75509 0,0.30653 -0.18,0.94491 -0.4,1.41862 -0.328,0.70637 -0.6125,0.86175 -1.5811,0.8638 -0.6496,10e-4 -1.2705,-0.14208 -1.3797,-0.31878 -0.1176,-0.19034 -0.6144,-0.005 -1.2189,0.45454 -0.9446,0.71826 -1.0974,0.74324 -2.0603,0.33672 -0.572,-0.2415 -1.0409,-0.55404 -1.042,-0.69454 -0.001,-0.14049 -0.4344,-0.5015 -0.9629,-0.80222 -1.0876,-0.61889 -1.5884,-1.68051 -1.78,-3.77322 -0.2925,-3.19442 -0.4695,-3.74054 -1.356,-4.1833 -2.0662,-1.03202 -2.0926,-1.15071 -1.114,-5.00797 l 0.5052,-1.99126 -1.1854,-1.31212 c -0.9288,-1.02802 -1.1491,-1.49759 -1.0173,-2.16874 0.6494,-3.30785 0.6177,-3.88172 -0.2526,-4.56623 -1.3453,-1.05826 -1.4472,-1.51017 -0.9876,-4.38044 0.3615,-2.25816 0.3571,-2.77858 -0.03,-3.51995 -0.5209,-0.99658 -0.4078,-4.68218 0.2851,-9.29328 0.2294,-1.52718 0.4064,-3.3527 0.3933,-4.0567 -0.023,-1.23652 -0.062,-1.28128 -1.1397,-1.31762 -1.6089,-0.0543 -8.0208,-0.42627 -11.1957,-0.64956 -1.496,-0.10522 -3.008,-0.19378 -3.36,-0.1968 -0.352,-0.003 -1.9215,-0.4126 -3.4877,-0.91018 -1.5662,-0.49758 -2.9766,-0.82499 -3.1342,-0.72757 -0.2803,0.17323 -1.0333,0.27666 -4.2422,0.58271 -2.03,0.19362 -2.7236,-0.28683 -1.6422,-1.13747 0.422,-0.33193 0.9174,-0.60351 1.1009,-0.60351 0.1835,0 0.4487,-0.19969 0.5895,-0.44375 0.1407,-0.24406 0.9759,-0.681964 1.8559,-0.973104 1.8142,-0.60024 7.1928,-2.61699 8.64,-3.23963 0.528,-0.22717 1.6271,-0.64585 2.4424,-0.9304 1.5059,-0.52553 1.8776,-1.14059 1.8776,-3.10663 0,-0.33742 0.1418,-0.78742 0.3152,-1 0.1733,-0.21257 0.6799,-0.8423 1.1256,-1.39939 1.2831,-1.60351 3.7037,-2.82554 6.8779,-3.47222 0.55,-0.11205 1.9149,-0.62662 3.4365,-1.29555 0.5746,-0.25263 1.5488,-0.67533 2.1648,-0.93933 0.616,-0.264 1.588,-0.68418 2.16,-0.93373 1.5557,-0.67872 5.5663,-1.99807 7.92,-2.60541 2.6865,-0.6932 9.7915,-0.85252 13.2559,-0.29725 1.4213,0.22779 2.6923,0.34755 2.8245,0.26614 0.3304,-0.2034 11.1871,1.39307 13.3596,1.96451 1.7036,0.44809 3.4051,0.76663 11.2,2.09672 5.7772,0.98579 12.3446,0.82856 15.7879,-0.37797 4.1569,-1.45656 8.5746,-0.59863 12.0856,2.34703 0.7736,0.64903 2.6936,1.84663 4.2668,2.66133 5.1801,2.68265 4.7753,3.29481 -2.7316,4.13033 -0.8092,0.0901 -2.1772,0.32519 -3.04,0.5225 -0.8628,0.19731 -2.0007,0.42959 -2.5287,0.51618 -0.528,0.0866 -1.32,0.22375 -1.76,0.30479 -2.3478,0.43242 -4.123,0.36997 -8.48,-0.29834 -4.765,-0.73089 -4.814,-0.73188 -6.72,-0.13616 -1.056,0.33006 -2.136,0.64067 -2.4,0.69024 -1.6974,0.31874 -2.5648,0.63576 -2.5969,0.94909 -0.047,0.45954 0.04,1.42028 0.2207,2.44 0.4282,2.414694 1.1462,6.972064 1.279,8.118974 0.084,0.72656 0.2547,1.96903 0.3788,2.76103 0.4918,3.13671 0.1223,42.22273 -0.4391,46.45502 -0.2124,1.60141 -0.2662,1.64492 -1.9225,1.55631 -0.8209,-0.0439 -1.036,0.0898 -1.2008,0.74633 -0.1104,0.43991 -0.6134,1.09369 -1.1178,1.45285 -0.865,0.61593 -0.9443,0.62168 -1.3955,0.10125 z M 215.486,135.24602 c -0.069,-0.0685 -1.1962,-0.18117 -2.5059,-0.25029 -1.3097,-0.0691 -4.6133,-0.42559 -7.3413,-0.79215 -7.3297,-0.98488 -13.3076,-1.70598 -14.9918,-1.80842 -3.1763,-0.19319 -5.5483,-0.59552 -5.9645,-1.01165 -0.239,-0.23903 -1.5616,-0.59693 -2.9391,-0.79533 -1.3775,-0.19841 -2.6414,-0.48718 -2.8086,-0.64171 -0.1672,-0.15454 -0.5535,-0.28097 -0.8584,-0.28097 -0.6945,0 -1.0941,-1.1618 -0.603,-1.7535 0.3487,-0.4202 3.5122,-1.50759 7.3654,-2.53174 0.968,-0.25729 2.696,-0.75584 3.84,-1.10789 1.144,-0.35206 3.16,-0.95046 4.48,-1.32978 1.32,-0.37932 3.12,-0.92222 4,-1.20645 0.88,-0.28423 1.744,-0.54286 1.92,-0.57474 0.176,-0.0319 0.8649,-0.28619 1.5308,-0.56513 1.0704,-0.44835 1.2059,-0.62913 1.1685,-1.55897 -0.023,-0.57849 0.041,-2.24024 0.1419,-3.69276 0.219,-3.13889 -0.1142,-4.99885 -2.1638,-12.07903 -2.0834,-7.19672 -2.0615,-7.11636 -2.6094,-9.595824 -0.5871,-2.65723 -0.6378,-4.70308 -0.1865,-7.52418 0.4945,-3.0914 0.3855,-8.03574 -0.1917,-8.6979 -0.258,-0.29585 -0.7077,-0.96266 -0.9994,-1.48179 -0.2917,-0.51913 -1.2445,-2.00508 -2.1174,-3.3021 -0.8728,-1.29701 -1.8627,-2.86221 -2.1996,-3.47821 -0.337,-0.616 -0.8594,-1.48 -1.161,-1.92 -0.3015,-0.44 -0.6447,-1.016 -0.7625,-1.28 -0.1178,-0.264 -0.567,-1.056 -0.9982,-1.76 -0.4312,-0.704 -0.7902,-1.484663 -0.7978,-1.734803 -0.01,-0.250141 -0.2043,-0.682141 -0.437,-0.96 -0.8274,-0.987821 -1.169,-3.128391 -1.2553,-7.865197 -0.056,-3.080336 -0.2279,-5.029289 -0.4795,-5.44 -0.2156,-0.352 -0.6946,-1.504 -1.0643,-2.559999 -0.3698,-1.056 -1.0999,-3.072 -1.6226,-4.48 -0.5226,-1.408 -1.2411,-3.540339 -1.5965,-4.738531 -0.7243,-2.441607 -0.576,-2.915033 1.0234,-3.266324 0.8881,-0.195061 1.2054,-0.741032 0.7153,-1.231073 -0.1224,-0.122427 -0.2638,-0.398427 -0.3142,-0.613333 -0.4875,-2.077866 -0.4869,-2.087403 0.1559,-2.291393 0.6455,-0.20489 3.7262,1.236256 4.9875,2.333148 0.5812,0.50546 0.5978,0.487384 0.3975,-0.432493 -0.477,-2.190704 -0.5773,-2.935073 -0.5371,-3.987932 0.023,-0.609363 0.091,-1.156371 0.1498,-1.215574 0.8645,-0.864403 6.5819,4.548567 16.9037,16.003505 0.4361,0.484 0.8788,0.88 0.9839,0.88 0.105,0 0.346,-0.57568 0.5354,-1.27929 0.19,-0.705667 0.9005,-1.863725 1.5844,-2.582685 1.2099,-1.271904 1.2618,-1.291865 2.1478,-0.826374 0.4994,0.262362 1.4955,1.100566 2.2135,1.862682 1.507,1.599625 4.9345,6.165794 4.9345,6.5739 0,0.15177 0.4262,0.774502 0.947,1.383853 0.5209,0.609353 0.9529,1.23832 0.96,1.397709 0.01,0.159385 0.373,0.761779 0.813,1.338649 0.44,0.576871 0.8,1.153376 0.8,1.281126 0,0.127751 0.5474,0.965357 1.2164,1.861351 0.669,0.895993 1.5448,2.169078 1.9461,2.829078 0.4013,0.66 0.862,1.2 1.0236,1.2 0.1617,0 0.2967,0.18 0.3001,0.4 0,0.22 0.7901,1.443558 1.7482,2.719018 0.9581,1.275459 1.9061,2.625654 2.1067,3.000431 0.2006,0.374778 1.1779,1.813616 2.1718,3.197418 2.1864,3.044023 3.0058,4.252213 3.8818,5.723133 0.3668,0.616 1.0837,1.768 1.5931,2.56 0.5093,0.792 1.4611,2.4445 2.1151,3.67221 l 1.189,2.23222 0.08,10.88778 c 0.099,13.413634 0.2559,15.454454 1.3671,17.723804 0.4638,0.94735 1.1353,1.905 1.4922,2.12812 0.5889,0.36817 5.2841,1.19047 9.2559,1.62106 1.5554,0.16861 4.4606,-0.34675 5.2388,-0.92935 0.2231,-0.16708 0.6551,-0.33018 0.96,-0.36244 0.3048,-0.0323 0.7702,-0.15006 1.0342,-0.26177 0.264,-0.1117 2.2642,-0.87762 4.4449,-1.70204 3.2039,-1.21122 4.3338,-1.49371 5.8866,-1.47169 1.0569,0.015 2.0735,0.17909 2.2591,0.36467 0.1855,0.18559 0.5844,0.33743 0.8862,0.33743 0.5266,0 1.0365,0.36456 3.2683,2.33693 1.0707,0.94626 2.1128,1.47052 4.2149,2.1204 2.0425,0.63148 3.3845,1.31417 3.5788,1.82064 0.2384,0.62116 -0.052,0.8719 -1.1078,0.95588 -5.4537,0.43388 -7.8136,0.82828 -9.831,1.64296 -1.3509,0.54554 -2.3473,0.64825 -6.4,0.65968 -2.64,0.007 -5.2688,0.0864 -5.8418,0.17544 -1.1426,0.17758 -4.2739,1.81357 -7.7582,4.05349 -4.5994,2.9567 -14.0848,8.31457 -14.7199,8.31457 -0.2225,0 -0.8536,0.27246 -1.4023,0.60548 -0.5488,0.33301 -1.4298,0.69544 -1.9578,0.80539 -0.528,0.10996 -1.32,0.27893 -1.76,0.37549 -4.8476,1.06384 -17.1758,2.37121 -17.6728,1.87416 z"
     id="path104-4"
     inkscape:connector-curvature="0"
     inkscape:export-xdpi="276.07364"
     inkscape:export-ydpi="276.07364" />
  <path
     style="fill:#806600;stroke-width:0.31999999"
     d="m 661.8901,238.56723 c -0.3713,-0.47204 -0.5977,-1.05974 -0.5032,-1.306 0.094,-0.24625 -0.044,-0.75608 -0.3082,-1.13294 -0.2639,-0.37686 -0.4799,-0.98491 -0.4799,-1.35123 0,-0.36631 -0.5025,-1.15307 -1.1167,-1.74834 -0.6403,-0.62065 -1.2018,-1.53618 -1.3162,-2.14631 -0.1098,-0.58519 -0.3163,-1.13609 -0.4589,-1.22422 -0.1426,-0.0881 -0.4909,-0.85763 -0.774,-1.71002 -0.4454,-1.34097 -0.632,-1.55124 -1.3845,-1.56062 -2.7549,-0.0343 -2.9971,-0.13458 -3.9483,-1.6345 -0.5068,-0.79907 -0.9266,-1.74867 -0.9329,-2.11021 -0.01,-0.36154 -0.3791,-1.08935 -0.8284,-1.61735 -0.589,-0.69209 -0.7166,-0.75907 -0.4573,-0.24 0.5141,1.02897 0.1298,0.89092 -1.1295,-0.40582 -1.1468,-1.18092 -1.4328,-1.95293 -0.6059,-1.63561 0.394,0.15117 0.4243,0.0691 0.1583,-0.42795 -0.181,-0.33823 -0.4724,-0.70349 -0.6474,-0.81168 -0.1751,-0.10819 -0.3183,-0.76421 -0.3183,-1.45782 0,-1.12647 -0.084,-1.26112 -0.7874,-1.26112 -0.433,0 -0.9395,-0.18 -1.1254,-0.4 -1.1441,-1.35365 -3.5272,-4.74454 -3.5272,-5.01881 0,-0.17993 -0.504,-1.40365 -1.12,-2.71937 -0.616,-1.31572 -1.12,-2.46811 -1.12,-2.56087 0,-0.0928 -0.5569,-1.35941 -1.2376,-2.8148 -0.6807,-1.45538 -1.5644,-3.36615 -1.9638,-4.24615 -2.1894,-4.82387 -3.4878,-7.46322 -3.752,-7.62646 -0.1633,-0.10098 -1.7977,-0.27811 -3.6318,-0.39364 -1.8341,-0.11552 -3.9108,-0.25495 -4.6148,-0.30984 -3.5916,-0.28002 -7.4954,-0.55469 -8.5984,-0.60497 -0.8487,-0.0387 -1.6039,-0.35905 -2.4,-1.01801 -1.0545,-0.87293 -1.6182,-1.02892 -6.1148,-1.69222 -2.7242,-0.40186 -5.1987,-0.8621 -5.4989,-1.02276 -0.3002,-0.16065 -0.9873,-0.2921 -1.5269,-0.2921 -0.5395,0 -0.981,-0.1272 -0.981,-0.28267 0,-0.15548 -0.288,-0.358 -0.64,-0.45005 -1.9486,-0.50956 0.027,-1.40063 8.32,-3.75193 1.32,-0.37427 2.688,-0.7998 3.04,-0.94563 0.352,-0.14582 1.072,-0.41107 1.6,-0.58944 6.9296,-2.34097 9.3645,-3.55573 14.376,-7.1721 1.0428,-0.7525 2.0508,-1.42471 2.24,-1.4938 0.1892,-0.0691 0.7724,-0.42598 1.296,-0.79308 1.5608,-1.09426 5.8401,-3.06652 7.7105,-3.55371 0.9599,-0.25001 1.8589,-0.52481 1.9978,-0.61066 0.1389,-0.0859 1.1002,-0.23651 2.1362,-0.33479 2.0879,-0.19807 2.2186,-0.31734 2.7431,-2.504 0.3634,-1.51462 0.3566,-1.53834 -0.8068,-2.82617 -0.9179,-1.01594 -1.1368,-1.48525 -1.0052,-2.15535 0.6494,-3.30785 0.6177,-3.88172 -0.2526,-4.56623 -1.3453,-1.05826 -1.4472,-1.51017 -0.9876,-4.38044 0.3615,-2.25816 0.3571,-2.77858 -0.03,-3.51995 -0.5209,-0.99658 -0.4078,-4.68219 0.2851,-9.29329 0.2294,-1.52718 0.4064,-3.3527 0.3933,-4.0567 -0.023,-1.23653 -0.062,-1.28128 -1.1397,-1.31763 -1.6089,-0.0542 -8.0208,-0.42627 -11.1957,-0.64956 -1.496,-0.10521 -3.008,-0.19377 -3.36,-0.19679 -0.352,-0.003 -1.9215,-0.4126 -3.4877,-0.91018 -1.5662,-0.49758 -2.9766,-0.82499 -3.1342,-0.72758 -0.2803,0.17323 -1.0333,0.27666 -4.2421,0.58271 -2.0301,0.19362 -2.7237,-0.28682 -1.6423,-1.13747 0.422,-0.33193 0.9174,-0.6035 1.1009,-0.6035 0.1835,0 0.4487,-0.19969 0.5895,-0.44375 0.1407,-0.24406 0.9759,-0.68196 1.8559,-0.97311 1.8142,-0.60024 7.1928,-2.61698 8.64,-3.23962 0.528,-0.22718 1.6271,-0.64585 2.4424,-0.9304 1.5059,-0.52553 1.8776,-1.14059 1.8776,-3.10663 0,-0.33743 0.1418,-0.78743 0.3152,-1 0.1733,-0.21257 0.6799,-0.8423 1.1256,-1.39939 1.2831,-1.60351 3.7037,-2.82553 6.8779,-3.47222 0.55,-0.11205 1.9149,-0.62661 3.4365,-1.29554 0.5746,-0.25264 1.5488,-0.67533 2.1648,-0.93933 0.616,-0.264 1.588,-0.68419 2.16,-0.93374 1.5557,-0.67871 5.5663,-1.99807 7.92,-2.6054 2.6864,-0.6932 9.7915,-0.85252 13.2559,-0.29725 1.4212,0.22779 2.6923,0.34755 2.8245,0.26613 0.3303,-0.2034 11.1871,1.39307 13.3596,1.96452 1.7036,0.44809 3.4051,0.76663 11.2,2.09672 5.7772,0.98578 12.3446,0.82856 15.7879,-0.37797 4.1569,-1.45656 8.5746,-0.59864 12.0856,2.34703 0.7735,0.64902 2.6936,1.84662 4.2668,2.66132 5.1801,2.68265 4.7753,3.29481 -2.7316,4.13033 -0.8092,0.0901 -2.1772,0.32519 -3.04,0.5225 -0.8628,0.19731 -2.0007,0.42959 -2.5287,0.51618 -0.528,0.0866 -1.32,0.22374 -1.76,0.30478 -2.3478,0.43243 -4.123,0.36998 -8.48,-0.29833 -4.765,-0.73089 -4.814,-0.73189 -6.72,-0.13616 -1.056,0.33006 -2.136,0.64066 -2.4,0.69024 -1.6974,0.31874 -2.5648,0.63576 -2.5969,0.94909 -0.047,0.45954 0.04,1.42028 0.2207,2.44 0.4282,2.41469 1.1462,6.97205 1.279,8.11897 0.084,0.72656 0.2565,1.96903 0.3829,2.76103 0.2546,1.59452 0.2431,31.74873 -0.014,37.21965 -0.1479,3.14653 -0.1057,3.51267 0.4662,4.04551 0.6184,0.57607 0.6186,0.59313 0.017,1.02035 -0.477,0.33848 -0.659,0.99435 -0.8238,2.96828 -0.1163,1.39359 -0.2872,2.60952 -0.3797,2.70205 -0.092,0.0925 -0.7235,0.13549 -1.4022,0.0954 -1.073,-0.0633 -1.2597,0.0301 -1.432,0.7167 -0.109,0.43423 -0.6109,1.08337 -1.1153,1.44253 -0.8649,0.61592 -0.9442,0.62168 -1.3954,0.10125 -0.2631,-0.30348 -0.7354,-1.24048 -1.0496,-2.08223 -0.6496,-1.74038 -0.9911,-2.08831 -1.2497,-1.2734 -0.099,0.31099 -0.4691,0.7463 -0.8231,0.96736 -1.1844,0.73971 -1.8545,-0.0753 -2.739,-3.33162 -0.055,-0.20245 -0.722,-0.47118 -1.4823,-0.59716 -0.7602,-0.12597 -1.6403,-0.36462 -1.9556,-0.53031 -0.8902,-0.46773 -3.7279,-0.37284 -6.1466,0.20552 -1.8132,0.43355 -7.0284,2.15037 -7.8974,2.59974 -1.2926,0.66842 -2.4002,2.34408 -2.6243,3.97032 -0.1891,1.37221 0.7292,5.95684 1.6824,8.4 0.1889,0.484 0.2785,0.88 0.1993,0.88 -0.079,0 0.01,0.396 0.1963,0.88 0.1873,0.484 0.3879,1.096 0.4459,1.36 0.058,0.264 0.5625,2.208 1.1211,4.32 0.5586,2.112 1.0718,4.128 1.1405,4.48 0.069,0.352 0.2744,1.36 0.4573,2.24 0.1828,0.88 0.4071,1.96 0.4984,2.4 0.6362,3.06526 0.9135,22.1534 0.3417,23.52 -0.1473,0.352 -0.2888,1.432 -0.3145,2.4 l -0.047,1.76 -1.2781,0.16 c -1.1208,0.1403 -1.2984,0.27775 -1.4425,1.11609 -0.2517,1.46438 -1.1307,1.39841 -2.7467,-0.20614 -0.7699,-0.76447 -1.4037,-1.60595 -1.4083,-1.86995 -0.011,-0.60475 -0.7909,0.86486 -1.0882,2.04957 -0.1856,0.73937 -0.3015,0.82145 -0.6967,0.49341 -0.3913,-0.32469 -0.4389,-0.30165 -0.2726,0.13176 0.2996,0.78081 -0.053,0.63701 -0.8156,-0.333 z m 8.1487,-3.80476 c 0.7884,-0.67534 0.7026,-0.65005 -0.48,0.14146 -0.792,0.53009 -1.872,1.34379 -2.4,1.80823 -0.8078,0.71053 -0.7316,0.6881 0.48,-0.14147 0.792,-0.54224 1.872,-1.35594 2.4,-1.80822 z m -17.12,-9.51481 c 0,-0.0538 -0.36,-0.58578 -0.8,-1.18217 -0.44,-0.59639 -0.8,-0.97853 -0.8,-0.84921 0,0.12932 0.3151,0.6613 0.7002,1.18217 0.6396,0.86513 0.8998,1.1107 0.8998,0.84921 z m 23.04,-56.049 c 4.6487,-0.27553 4.6711,-0.28534 3.6665,-1.6024 -0.4472,-0.5864 -1.0776,-1.98072 -1.4007,-3.09848 -0.4868,-1.6843 -2.0658,-5.98574 -3.2128,-8.75229 -0.1459,-0.352 -0.5139,-1.36 -0.8177,-2.24 -0.3039,-0.88 -0.726,-1.888 -0.938,-2.24 -0.2121,-0.352 -0.5771,-1.36 -0.8111,-2.24 -0.234,-0.88 -0.5335,-1.744 -0.6655,-1.92 -0.132,-0.176 -0.7742,-1.688 -1.427,-3.36 -0.6529,-1.67199 -1.373,-3.47199 -1.6002,-3.99999 -0.2272,-0.528 -0.6627,-1.64506 -0.9677,-2.48236 -0.6422,-1.76304 -1.2477,-1.63095 -1.5338,0.33461 -0.2738,1.88051 -0.9996,4.802 -1.257,5.0594 -0.1292,0.12926 -0.235,0.64497 -0.235,1.14602 0,0.50105 -0.1383,1.16105 -0.3073,1.46667 -0.285,0.51509 -1.4824,4.96334 -1.8294,6.79565 -0.083,0.44 -0.2738,1.088 -0.4233,1.44 -0.1495,0.352 -0.3446,1 -0.4336,1.44 -0.089,0.44 -0.3004,1.304 -0.4697,1.92 -0.4013,1.45975 -1.3053,4.66063 -1.7171,6.08 -0.1788,0.616 -0.3968,1.65362 -0.4846,2.30581 -0.1472,1.09436 -0.089,1.2017 0.7528,1.39185 0.9875,0.22305 4.3557,1.30172 5.3922,1.72687 0.9268,0.38017 3.0717,0.94954 4,1.06185 0.845,0.10221 1.3657,0.0841 6.72,-0.23321 z M 475.52,231.19998 c -0.07,-0.0702 -1.6203,-0.18862 -3.4445,-0.26307 -5.4323,-0.2217 -8.5074,-0.43754 -9.4594,-0.66396 -1.0748,-0.25563 -2.0173,-1.01775 -2.0173,-1.6312 0,-0.35578 -0.4633,-0.40707 -2.32,-0.25687 -2.6917,0.21776 -8.4617,1.03045 -10.32,1.45353 -2.0014,0.45568 -4.2564,0.36352 -5.1312,-0.20972 -0.4339,-0.28424 -0.7888,-0.62024 -0.7888,-0.74667 0,-0.65201 2.5469,-2.63132 4.2772,-3.324 1.085,-0.43436 2.8345,-1.17907 3.8878,-1.65491 3.9716,-1.79429 4.8124,-2.16521 5.435,-2.39762 0.352,-0.13141 1.288,-0.53587 2.08,-0.89882 0.792,-0.36294 2.3628,-1.06518 3.4906,-1.56053 1.1278,-0.49536 3.5038,-1.63326 5.28,-2.52867 5.1688,-2.6057 5.3136,-3.40322 2.5516,-14.05198 -0.5112,-1.9711 -1.3106,-5.26279 -1.5542,-6.4 -0.075,-0.352 -0.3694,-1.504 -0.6534,-2.56 -0.5743,-2.13516 -1.1124,-4.22923 -1.2746,-4.96 -0.059,-0.264 -0.2539,-1.056 -0.434,-1.76 -0.18,-0.704 -0.5706,-2.288 -0.868,-3.52 -0.3126,-1.29563 -0.9083,-2.71218 -1.413,-3.36 -1.6132,-2.07107 -1.8538,-3.11904 -1.1231,-4.89192 0.1426,-0.34598 0.052,-0.78843 -0.2294,-1.12 -0.5522,-0.65065 -1.5325,-2.73074 -1.5325,-3.2519 0,-0.2019 0.2688,-0.92337 0.5973,-1.60327 0.5906,-1.22253 0.5899,-1.24352 -0.069,-1.902 -0.8544,-0.85437 -0.9014,-3.55223 -0.089,-5.09389 0.3748,-0.71115 0.4572,-1.18778 0.2488,-1.44 -0.1713,-0.20736 -0.407,-0.88808 -0.5237,-1.51272 -0.1915,-1.02522 -0.09,-1.25393 1.0399,-2.35085 l 1.252,-1.21513 -0.5397,-1.96916 c -0.7295,-2.66182 -0.9765,-4.36916 -0.6322,-4.36916 0.5181,0 2.0589,0.76646 3.1237,1.55379 0.5768,0.42651 1.114,0.7101 1.1939,0.63022 0.08,-0.0799 -0.2928,-1.50397 -0.8282,-3.16463 -0.5354,-1.66066 -1.0264,-3.30738 -1.0912,-3.65938 -0.065,-0.352 -0.2168,-0.964 -0.3379,-1.36 -0.3824,-1.25142 0.3612,-0.79878 2.3027,1.40165 1.0296,1.16691 2.3393,2.64291 2.9104,3.28 0.5712,0.6371 1.0392,1.26635 1.04,1.39835 8e-4,0.132 0.1623,0.24 0.3589,0.24 0.2224,0 0.2742,-0.27183 0.1373,-0.72 -0.1211,-0.396 -0.2798,-1.008 -0.3527,-1.36 -0.073,-0.352 -0.2796,-1.288 -0.4592,-2.08 -0.8583,-3.78448 -0.9711,-5.24017 -0.5145,-6.63999 0.3294,-1.00986 0.9517,-0.89871 2.2528,0.40237 1.0209,1.0209 1.8211,2.47718 3.0759,5.59762 0.4499,1.11855 0.4511,1.11521 0.9929,-2.55999 0.2983,-2.024 0.5532,-3.86 0.5663,-4.08 0.013,-0.22 0.2854,-0.4 0.605,-0.4 0.4038,0 0.8551,0.61035 1.4789,2 0.4937,1.1 0.9963,2.216 1.1168,2.48 0.1205,0.264 0.6313,1.73663 1.1352,3.27252 0.8818,2.68813 0.947,2.78493 1.742,2.58938 0.4543,-0.11173 1.134,-0.40248 1.5105,-0.64611 l 0.6846,-0.44296 -0.7409,-1.53584 c -1.0916,-2.26273 -1.8065,-4.97341 -1.5652,-5.93477 0.2397,-0.95513 1.0012,-1.46222 2.1959,-1.46222 0.4516,0 0.8368,-0.108 0.8561,-0.24 0.019,-0.132 0.09,-1.16227 0.1561,-2.28949 0.067,-1.12721 0.1876,-2.11594 0.2688,-2.19717 0.081,-0.0812 0.839,0.50073 1.6839,1.29324 3.5485,3.32852 4.3819,4.05437 4.5089,3.92733 0.074,-0.0737 -0.1109,-0.611 -0.4102,-1.19397 -0.6906,-1.34493 -2.7226,-7.15545 -2.7226,-7.78529 0,-1.05925 1.4745,-0.45779 3.0931,1.2617 l 1.6344,1.73635 0.1261,-3.13899 c 0.1318,-3.28189 0.5849,-4.51892 1.4057,-3.83771 0.4841,0.40174 2.1092,3.74067 3.8081,7.824 0.659,1.584 1.3847,3.312 1.6125,3.84 0.2278,0.528 0.8744,2.112 1.4368,3.52 0.5624,1.408 1.212,2.99199 1.4435,3.51999 0.2315,0.528 0.6674,1.608 0.9687,2.4 0.3013,0.792 0.6573,1.728 0.7912,2.08 0.1338,0.352 0.488,1.288 0.7871,2.08 0.2991,0.792 0.7483,1.84768 0.9983,2.34594 0.25,0.49826 0.4545,1.0525 0.4545,1.23164 0,0.17913 0.2019,0.77946 0.4486,1.33406 0.2467,0.5546 0.8381,2.08836 1.3141,3.40836 0.4761,1.32 1.0744,2.796 1.3296,3.28 0.2551,0.484 0.3889,0.88 0.2972,0.88 -0.092,0 0.1182,0.66474 0.4665,1.47719 0.9752,2.27515 2.2571,6.23782 2.4206,7.48281 0.1583,1.2051 -0.3748,5.19187 -0.8343,6.24 -0.5297,1.2083 -2.1671,13.74197 -2.0401,15.61621 0.069,1.02092 0.4117,3.82892 0.7611,6.24 0.3494,2.41109 0.6367,4.52779 0.6385,4.70379 0,0.29886 1.4398,1.12 1.9597,1.12 0.1286,0 1.1672,0.432 2.308,0.96 1.1407,0.528 2.3028,0.96 2.5823,0.96 0.2795,0 0.5082,0.12421 0.5082,0.27602 0,0.1518 3.06,0.23978 6.8,0.19552 6.4683,-0.0766 11.454,-0.60541 13.4506,-1.42672 1.326,-0.54546 5.4563,-1.31817 7.2462,-1.35564 3.5654,-0.0746 4.3422,0.2388 7.2235,2.91477 1.4537,1.35005 3.444,2.84686 4.423,3.32623 2.0665,1.01185 2.3908,1.3929 1.7396,2.04408 -0.7147,0.71477 -2.5785,1.05763 -6.6429,1.22205 -12.5613,0.50814 -13.9661,0.58282 -17.92,0.95257 -1.144,0.10698 -2.584,0.3541 -3.2,0.54916 -1.3479,0.42681 -5.626,2.49333 -7.84,3.787 -2.9988,1.75236 -12.4707,6.33987 -16.015,7.75657 -1.9442,0.77714 -4.6802,1.66741 -6.08,1.97836 -1.3997,0.31096 -2.9197,0.67977 -3.3777,0.81958 -0.8229,0.25122 -22.8793,0.34176 -23.1261,0.0949 z m 371.3302,-6.07275 c -0.3714,-0.47204 -0.5978,-1.05974 -0.5033,-1.306 0.095,-0.24625 -0.044,-0.75608 -0.3082,-1.13294 -0.2639,-0.37686 -0.4799,-0.98491 -0.4799,-1.35123 0,-0.36631 -0.5025,-1.15307 -1.1167,-1.74834 -0.6403,-0.62065 -1.2018,-1.53618 -1.3163,-2.14631 -0.1097,-0.58519 -0.3162,-1.13609 -0.4588,-1.22422 -0.1426,-0.0881 -0.4909,-0.85763 -0.774,-1.71002 -0.4454,-1.34097 -0.632,-1.55124 -1.3845,-1.56062 -2.7549,-0.0343 -2.9971,-0.13458 -3.9483,-1.6345 -0.5068,-0.79907 -0.9266,-1.74866 -0.9329,-2.11021 -0.01,-0.36154 -0.3791,-1.08935 -0.8284,-1.61735 -0.589,-0.69209 -0.7166,-0.75907 -0.4572,-0.24 0.514,1.02897 0.1297,0.89092 -1.1296,-0.40582 -1.1468,-1.18092 -1.4328,-1.95293 -0.6059,-1.63561 0.394,0.15117 0.4243,0.0691 0.1583,-0.42795 -0.181,-0.33823 -0.4724,-0.70349 -0.6474,-0.81168 -0.1751,-0.10819 -0.3183,-0.76421 -0.3183,-1.45782 0,-1.12647 -0.084,-1.26112 -0.7874,-1.26112 -0.433,0 -0.9395,-0.18 -1.1254,-0.4 -1.1441,-1.35365 -3.5272,-4.74454 -3.5272,-5.01881 0,-0.17993 -0.504,-1.40365 -1.12,-2.71937 -0.616,-1.31572 -1.12,-2.46811 -1.12,-2.56087 0,-0.0927 -0.5569,-1.35941 -1.2376,-2.8148 -0.6807,-1.45538 -1.5643,-3.36615 -1.9638,-4.24615 -2.1893,-4.82387 -3.4878,-7.46322 -3.752,-7.62646 -0.1634,-0.10098 -1.7977,-0.27811 -3.6318,-0.39364 -1.8342,-0.11552 -3.9108,-0.25495 -4.6148,-0.30984 -3.5916,-0.28002 -7.4954,-0.55469 -8.5984,-0.60497 -0.8487,-0.0387 -1.6039,-0.35905 -2.4,-1.01801 -1.0545,-0.87293 -1.6182,-1.02892 -6.1148,-1.69222 -2.7242,-0.40186 -5.1987,-0.8621 -5.4989,-1.02276 -0.3002,-0.16065 -0.9873,-0.2921 -1.5269,-0.2921 -0.5395,0 -0.981,-0.1272 -0.981,-0.28267 0,-0.15548 -0.288,-0.35799 -0.64,-0.45005 -1.9486,-0.50956 0.027,-1.40063 8.32,-3.75193 1.32,-0.37427 2.688,-0.7998 3.04,-0.94563 0.352,-0.14582 1.072,-0.41107 1.6,-0.58944 6.9295,-2.34097 9.3645,-3.55573 14.376,-7.1721 1.0428,-0.7525 2.0508,-1.42471 2.24,-1.4938 0.1892,-0.0691 0.7724,-0.42598 1.296,-0.79308 2.535,-1.77725 7.0594,-3.57903 11.0342,-4.3942 1.6902,-0.34664 8.8731,-0.10499 11.0939,0.37322 0.858,0.18475 2.3519,0.47837 3.3199,0.65249 0.968,0.17412 2.0101,0.45397 2.3157,0.62189 0.3056,0.16792 0.7993,0.3053 1.0972,0.3053 0.2979,0 0.9839,0.14084 1.5244,0.31297 3.5801,1.14017 5.2234,1.68116 5.7827,1.9037 2.2176,0.88239 3.465,1.07517 6.5572,1.01338 1.8495,-0.037 3.8668,-0.12382 4.4828,-0.19301 0.616,-0.0692 3.1491,-0.22473 5.629,-0.34565 4.1158,-0.20068 4.6977,-0.15887 6.6731,0.47933 2.4192,0.78152 3.782,1.65697 4.2795,2.74901 0.2828,0.62043 3.2782,2.37456 4.1186,2.41178 0.1429,0.006 0.6638,0.34209 1.1575,0.74613 1.2873,1.05346 0.5993,1.46345 -2.695,1.60593 -1.4755,0.0638 -3.6187,0.36852 -4.7627,0.67714 -2.4536,0.66193 -6.879,0.77406 -7.9334,0.20103 -1.028,-0.55871 -3.71,-0.51269 -6.3066,0.1082 -1.8131,0.43356 -7.0284,2.15037 -7.8974,2.59974 -1.2926,0.66842 -2.4001,2.34408 -2.6243,3.97032 -0.189,1.37221 0.7292,5.95684 1.6825,8.4 0.1888,0.484 0.2785,0.88 0.1992,0.88 -0.079,0 0.01,0.396 0.1964,0.88 0.1872,0.484 0.3879,1.096 0.4458,1.36 0.058,0.264 0.5625,2.208 1.1211,4.32 0.5587,2.112 1.0719,4.128 1.1405,4.48 0.069,0.352 0.2745,1.36 0.4573,2.24 0.1828,0.88 0.4072,1.96 0.4985,2.4 0.6362,3.06526 0.9135,22.1534 0.3416,23.52 -0.1473,0.352 -0.2888,1.432 -0.3145,2.4 l -0.047,1.76 -1.2781,0.16 c -1.1207,0.1403 -1.2984,0.27775 -1.4425,1.11609 -0.2517,1.46438 -1.1306,1.39841 -2.7466,-0.20614 -0.77,-0.76447 -1.4037,-1.60595 -1.4083,-1.86995 -0.011,-0.60475 -0.7909,0.86486 -1.0883,2.04957 -0.1855,0.73937 -0.3014,0.82145 -0.6967,0.49341 -0.3912,-0.32469 -0.4389,-0.30165 -0.2726,0.13176 0.2997,0.78081 -0.053,0.63701 -0.8155,-0.333 z m 8.1486,-3.80476 c 0.7884,-0.67534 0.7026,-0.65005 -0.48,0.14146 -0.792,0.53009 -1.872,1.34379 -2.4,1.80823 -0.8078,0.71053 -0.7316,0.6881 0.48,-0.14147 0.792,-0.54224 1.872,-1.35594 2.4,-1.80822 z m -17.12,-9.51481 c 0,-0.0538 -0.36,-0.58578 -0.8,-1.18217 -0.44,-0.59638 -0.8,-0.97853 -0.8,-0.84921 0,0.12932 0.3151,0.6613 0.7002,1.18217 0.6396,0.86513 0.8998,1.1107 0.8998,0.84921 z m -194.64,1.54758 c -0.308,-0.42357 -0.56,-0.86868 -0.56,-0.98912 0,-0.33733 0.9562,0.53437 1.3087,1.19306 0.4547,0.84949 -0.091,0.70094 -0.7487,-0.20394 z m 184.96,-13.44 c -0.308,-0.42357 -0.56,-0.86868 -0.56,-0.98912 0,-0.33733 0.9562,0.53437 1.3087,1.19306 0.4547,0.84949 -0.091,0.70094 -0.7487,-0.20394 z m -270.714,-44.57797 c -0.2631,-0.30348 -0.7355,-1.24048 -1.0497,-2.08223 -0.6496,-1.74038 -0.991,-2.08831 -1.2497,-1.2734 -0.099,0.31099 -0.4691,0.7463 -0.823,0.96736 -1.3466,0.84099 -2.4381,-0.81942 -2.7919,-4.24729 -0.1611,-1.56098 -0.2941,-1.81245 -1.2608,-2.38279 -1.2663,-0.74712 -1.6243,-1.53955 -1.8044,-3.99368 -0.1363,-1.85753 -0.725,-2.70776 -1.8902,-2.72957 -0.8444,-0.0158 -2.1433,-1.97918 -2.7905,-4.21789 -0.4868,-1.6843 -2.0658,-5.98574 -3.2128,-8.75228 -0.1459,-0.352 -0.5139,-1.36 -0.8177,-2.24 -0.3039,-0.88 -0.726,-1.888 -0.938,-2.24 -0.2121,-0.352 -0.5771,-1.36 -0.8111,-2.24 -0.234,-0.88 -0.5335,-1.744 -0.6655,-1.92 -0.132,-0.176 -0.7742,-1.688 -1.427,-3.36 -0.6529,-1.67199 -1.373,-3.47199 -1.6002,-3.99999 -0.2272,-0.528 -0.6627,-1.64506 -0.9677,-2.48236 -0.6422,-1.76304 -1.2477,-1.63095 -1.5338,0.33461 -0.2738,1.88051 -0.9996,4.802 -1.257,5.0594 -0.1292,0.12925 -0.235,0.64496 -0.235,1.14601 0,0.50106 -0.1383,1.16106 -0.3073,1.46667 -0.285,0.51509 -1.4824,4.96334 -1.8294,6.79566 -0.083,0.44 -0.2738,1.088 -0.4233,1.44 -0.1495,0.352 -0.3446,1 -0.4336,1.44 -0.1915,0.94642 -0.8625,3.40467 -2.1839,8 -0.1771,0.616 -0.3965,1.58933 -0.4876,2.16296 -0.091,0.57363 -0.2937,1.12213 -0.4502,1.21889 -0.1566,0.0967 -0.2847,0.48119 -0.2847,0.85431 0,0.7205 -0.5322,2.59497 -0.9993,3.51949 -0.1544,0.30562 -0.2807,0.90912 -0.2807,1.34112 0,0.432 -0.144,0.87445 -0.32,0.98322 -0.176,0.10878 -0.32,0.44857 -0.32,0.75509 0,0.30653 -0.18,0.94491 -0.4,1.41862 -0.328,0.70637 -0.6125,0.86175 -1.5811,0.8638 -0.6496,10e-4 -1.2705,-0.14208 -1.3797,-0.31878 -0.1176,-0.19034 -0.6144,-0.005 -1.2189,0.45454 -0.9446,0.71826 -1.0974,0.74324 -2.0603,0.33672 -0.572,-0.2415 -1.0409,-0.55404 -1.042,-0.69454 -10e-4,-0.14049 -0.4344,-0.5015 -0.9629,-0.80222 -1.0876,-0.61889 -1.5884,-1.68051 -1.78,-3.77322 -0.2925,-3.19442 -0.4695,-3.74054 -1.356,-4.1833 -2.0662,-1.03202 -2.0926,-1.15071 -1.114,-5.00797 l 0.5052,-1.99126 -1.1854,-1.31212 c -0.9288,-1.02802 -1.1491,-1.49759 -1.0173,-2.16874 0.6494,-3.30785 0.6177,-3.88172 -0.2526,-4.56623 -1.3453,-1.05826 -1.4472,-1.51017 -0.9876,-4.38044 0.3615,-2.25816 0.3571,-2.77858 -0.03,-3.51995 -0.5209,-0.99658 -0.4078,-4.68218 0.2851,-9.29328 0.2294,-1.52718 0.4064,-3.3527 0.3933,-4.0567 -0.023,-1.23652 -0.062,-1.28128 -1.1397,-1.31762 -1.6089,-0.0543 -8.0208,-0.426268 -11.1957,-0.649558 -1.496,-0.10522 -3.008,-0.19378 -3.36,-0.1968 -0.352,-0.003 -1.9215,-0.4126 -3.4877,-0.91018 -1.5662,-0.49758 -2.9766,-0.82499 -3.1342,-0.72757 -0.2803,0.17323 -1.0333,0.27666 -4.2421,0.58271 -2.0301,0.19362 -2.7237,-0.28683 -1.6423,-1.13747 0.422,-0.33193 0.9174,-0.60351 1.1009,-0.60351 0.1835,0 0.4488,-0.19969 0.5895,-0.44375 0.1407,-0.24406 0.9759,-0.68196 1.8559,-0.9731 1.8142,-0.60024 7.1928,-2.61699 8.64,-3.23963 0.528,-0.22717 1.6271,-0.64585 2.4424,-0.9304 1.5059,-0.52553 1.8776,-1.14059 1.8776,-3.10663 0,-0.33742 0.1418,-0.78742 0.3152,-1 0.1733,-0.21257 0.6799,-0.8423 1.1256,-1.39939 1.2831,-1.60351 3.7037,-2.82554 6.8779,-3.47222 0.55,-0.11205 1.9149,-0.62662 3.4365,-1.29555 0.5746,-0.25263 1.5488,-0.67533 2.1648,-0.93933 0.616,-0.264 1.588,-0.68418 2.16,-0.93373 1.5557,-0.67872 5.5663,-1.99807 7.92,-2.60541 2.6865,-0.6932 9.7915,-0.85252 13.2559,-0.29725 1.4213,0.22779 2.6923,0.34755 2.8245,0.26614 0.3304,-0.2034 11.1871,1.39307 13.3596,1.96451 1.7036,0.44809 3.4051,0.76663 11.2,2.09672 5.7772,0.98579 12.3446,0.82856 15.7879,-0.37797 4.1569,-1.45656 8.5746,-0.59863 12.0856,2.34703 0.7736,0.64903 2.6936,1.84663 4.2668,2.66133 5.1801,2.68265 4.7753,3.29481 -2.7316,4.13033 -0.8092,0.0901 -2.1772,0.32519 -3.04,0.5225 -0.8628,0.19731 -2.0007,0.42959 -2.5287,0.51618 -0.528,0.0866 -1.32,0.22375 -1.76,0.30479 -2.3478,0.43242 -4.123,0.36997 -8.48,-0.29834 -4.765,-0.73089 -4.814,-0.73188 -6.72,-0.13616 -1.056,0.33006 -2.136,0.64067 -2.4,0.69024 -1.6974,0.31874 -2.5648,0.63576 -2.5969,0.94909 -0.047,0.45954 0.04,1.42028 0.2207,2.44 0.4282,2.41469 1.1462,6.972058 1.279,8.118968 0.084,0.72656 0.2547,1.96903 0.3788,2.76103 0.4918,3.13671 0.1223,42.22273 -0.4391,46.45502 -0.2124,1.60141 -0.2662,1.64492 -1.9225,1.55631 -0.8209,-0.0439 -1.036,0.0898 -1.2008,0.74633 -0.1104,0.43991 -0.6134,1.09369 -1.1178,1.45285 -0.865,0.61593 -0.9443,0.62168 -1.3955,0.10125 z"
     id="path79-6"
     inkscape:connector-curvature="0" />
  <path
     style="fill:#806600;stroke-width:0.31999999"
     d="m 75.1951,554.08339 c -0.3714,-0.47204 -0.5978,-1.05974 -0.5033,-1.306 0.095,-0.24625 -0.044,-0.75608 -0.3082,-1.13294 -0.2639,-0.37686 -0.4799,-0.98491 -0.4799,-1.35123 0,-0.36631 -0.5025,-1.15307 -1.1167,-1.74834 -0.6403,-0.62065 -1.2018,-1.53618 -1.3162,-2.14631 -0.1098,-0.58519 -0.3163,-1.13609 -0.4589,-1.22422 -0.1426,-0.0881 -0.4909,-0.85763 -0.774,-1.71002 -0.4454,-1.34097 -0.632,-1.55125 -1.3845,-1.56062 -2.7549,-0.0343 -2.9971,-0.13458 -3.9483,-1.6345 -0.5068,-0.79908 -0.9266,-1.74867 -0.9329,-2.11021 -0.01,-0.36154 -0.3791,-1.08935 -0.8284,-1.61735 -0.589,-0.69209 -0.7166,-0.75907 -0.4573,-0.24 0.5141,1.02897 0.1298,0.89092 -1.1295,-0.40582 -1.1468,-1.18092 -1.4328,-1.95293 -0.6059,-1.63562 0.394,0.15118 0.4243,0.0691 0.1583,-0.42794 -0.181,-0.33824 -0.4724,-0.70349 -0.6474,-0.81168 -0.1751,-0.10819 -0.3183,-0.76421 -0.3183,-1.45783 0,-1.12646 -0.084,-1.26111 -0.7874,-1.26111 -0.433,0 -0.9395,-0.18 -1.1254,-0.4 -1.1441,-1.35365 -3.5272,-4.74454 -3.5272,-5.01881 0,-0.17993 -0.504,-1.40365 -1.12,-2.71937 -0.616,-1.31573 -1.12,-2.46812 -1.12,-2.56087 0,-0.0928 -0.5569,-1.35942 -1.2376,-2.8148 -0.6807,-1.45538 -1.5644,-3.36615 -1.9638,-4.24615 -2.1894,-4.82387 -3.4878,-7.46322 -3.752,-7.62646 -0.1633,-0.10098 -1.7977,-0.27811 -3.6318,-0.39364 -1.8341,-0.11552 -3.9108,-0.25495 -4.6148,-0.30984 -3.5916,-0.28003 -7.4954,-0.55469 -8.5984,-0.60497 -0.8487,-0.0387 -1.6039,-0.35905 -2.4,-1.01801 -1.0545,-0.87293 -1.6182,-1.02892 -6.1148,-1.69222 -2.7242,-0.40187 -5.1987,-0.86211 -5.4989,-1.02276 -0.3002,-0.16065 -0.9873,-0.2921 -1.5269,-0.2921 -0.5395,0 -0.981,-0.1272 -0.981,-0.28268 0,-0.15547 -0.288,-0.35799 -0.64,-0.45004 -1.9486,-0.50956 0.027,-1.40063 8.32,-3.75193 1.32,-0.37427 2.688,-0.79981 3.04,-0.94563 0.352,-0.14582 1.072,-0.41107 1.6,-0.58944 6.9295,-2.34097 9.3645,-3.55573 14.376,-7.1721 1.0428,-0.7525 2.0508,-1.42471 2.24,-1.4938 0.1892,-0.0691 0.7724,-0.42598 1.296,-0.79308 2.535,-1.77725 7.0594,-3.57903 11.0342,-4.3942 1.6902,-0.34664 8.8731,-0.10499 11.0939,0.37322 0.858,0.18475 2.3519,0.47836 3.3199,0.65249 0.968,0.17412 2.0101,0.45397 2.3157,0.62189 0.3056,0.16791 0.7994,0.3053 1.0973,0.3053 0.2978,0 0.9838,0.14084 1.5243,0.31297 3.5801,1.14017 5.2234,1.68116 5.7827,1.9037 2.2176,0.88239 3.465,1.07517 6.5572,1.01337 1.8495,-0.037 3.8668,-0.12381 4.4828,-0.193 0.616,-0.0692 3.1491,-0.22473 5.629,-0.34565 4.1158,-0.20068 4.6977,-0.15888 6.6732,0.47933 2.419,0.78152 3.7819,1.65697 4.2795,2.749 0.2826,0.62044 3.2781,2.37457 4.1185,2.41179 0.1429,0.006 0.6638,0.34209 1.1575,0.74613 1.2873,1.05346 0.5993,1.46345 -2.695,1.60592 -1.4755,0.0638 -3.6187,0.36853 -4.7627,0.67715 -2.4536,0.66193 -6.879,0.77406 -7.9334,0.20102 -1.028,-0.5587 -3.71,-0.51268 -6.3066,0.10821 -1.8131,0.43355 -7.0284,2.15037 -7.8974,2.59974 -1.2926,0.66842 -2.4001,2.34408 -2.6242,3.97032 -0.1891,1.37221 0.7291,5.95684 1.6824,8.4 0.1889,0.484 0.2785,0.88 0.1992,0.88 -0.079,0 0.01,0.396 0.1963,0.88 0.1873,0.484 0.388,1.096 0.4459,1.36 0.058,0.264 0.5625,2.208 1.1211,4.32 0.5586,2.112 1.0719,4.128 1.1406,4.48 0.069,0.352 0.2744,1.36 0.4572,2.24 0.1829,0.88 0.4072,1.96 0.4985,2.4 0.6362,3.06526 0.9135,22.1534 0.3416,23.52 -0.1473,0.352 -0.2888,1.432 -0.3145,2.4 l -0.047,1.76 -1.2781,0.16 c -1.1207,0.14029 -1.2984,0.27775 -1.4425,1.11609 -0.2517,1.46437 -1.1306,1.39841 -2.7466,-0.20614 -0.77,-0.76447 -1.4037,-1.60595 -1.4083,-1.86995 -0.011,-0.60475 -0.7909,0.86486 -1.0883,2.04957 -0.1855,0.73937 -0.3014,0.82145 -0.6967,0.49341 -0.3912,-0.32469 -0.4389,-0.30165 -0.2726,0.13176 0.2996,0.78081 -0.053,0.63701 -0.8155,-0.333 z m 8.1486,-3.80476 c 0.7884,-0.67534 0.7026,-0.65005 -0.48,0.14146 -0.792,0.53009 -1.872,1.34379 -2.4,1.80823 -0.8078,0.71053 -0.7316,0.6881 0.48,-0.14147 0.792,-0.54225 1.872,-1.35595 2.4,-1.80822 z m -17.12,-9.51481 c 0,-0.0538 -0.36,-0.58578 -0.8,-1.18217 -0.44,-0.59639 -0.8,-0.97853 -0.8,-0.84921 0,0.12932 0.3151,0.66129 0.7002,1.18217 0.6396,0.86512 0.8998,1.1107 0.8998,0.84921 z m -9.68,-11.89242 c -0.308,-0.42358 -0.56,-0.86868 -0.56,-0.98912 0,-0.33733 0.9562,0.53437 1.3087,1.19305 0.4547,0.8495 -0.091,0.70095 -0.7487,-0.20393 z m 344.7314,-24.70801 c -0.3714,-0.47204 -0.5978,-1.05974 -0.5033,-1.306 0.094,-0.24625 -0.044,-0.75608 -0.3082,-1.13294 -0.2639,-0.37686 -0.4799,-0.98491 -0.4799,-1.35123 0,-0.36631 -0.5025,-1.15307 -1.1167,-1.74834 -0.6403,-0.62065 -1.2018,-1.53618 -1.3163,-2.14631 -0.1097,-0.58519 -0.3162,-1.13609 -0.4588,-1.22422 -0.1426,-0.0881 -0.4909,-0.85763 -0.774,-1.71002 -0.4454,-1.34097 -0.632,-1.55124 -1.3845,-1.56062 -2.7549,-0.0343 -2.9971,-0.13458 -3.9483,-1.6345 -0.5068,-0.79907 -0.9266,-1.74866 -0.9329,-2.11021 -0.01,-0.36154 -0.3791,-1.08935 -0.8284,-1.61735 -0.589,-0.69209 -0.7166,-0.75907 -0.4572,-0.24 0.514,1.02897 0.1297,0.89092 -1.1296,-0.40582 -1.1468,-1.18092 -1.4328,-1.95293 -0.6059,-1.63561 0.394,0.15117 0.4243,0.0691 0.1583,-0.42795 -0.181,-0.33823 -0.4724,-0.70349 -0.6474,-0.81168 -0.1751,-0.10819 -0.3183,-0.76421 -0.3183,-1.45782 0,-1.12647 -0.084,-1.26112 -0.7874,-1.26112 -0.4331,0 -0.9395,-0.18 -1.1254,-0.4 -1.1441,-1.35365 -3.5272,-4.74454 -3.5272,-5.01881 0,-0.17993 -0.504,-1.40365 -1.12,-2.71937 -0.616,-1.31572 -1.12,-2.46811 -1.12,-2.56087 0,-0.0928 -0.5569,-1.35941 -1.2376,-2.8148 -0.6807,-1.45538 -1.5644,-3.36615 -1.9638,-4.24615 -2.1894,-4.82387 -3.4879,-7.46322 -3.752,-7.62646 -0.1634,-0.10098 -1.7977,-0.27811 -3.6318,-0.39364 -1.8342,-0.11552 -3.9108,-0.25495 -4.6148,-0.30984 -3.5916,-0.28002 -7.4954,-0.55469 -8.5984,-0.60497 -0.8487,-0.0387 -1.6039,-0.35905 -2.4,-1.01801 -1.0545,-0.87293 -1.6182,-1.02892 -6.1148,-1.69222 -2.7242,-0.40186 -5.1987,-0.8621 -5.4989,-1.02276 -0.3002,-0.16065 -0.9873,-0.2921 -1.5269,-0.2921 -0.5395,0 -0.981,-0.1272 -0.981,-0.28267 0,-0.15548 -0.288,-0.35799 -0.64,-0.45005 -1.9486,-0.50956 0.027,-1.40063 8.32,-3.75193 1.32,-0.37427 2.688,-0.7998 3.04,-0.94563 0.352,-0.14582 1.072,-0.41107 1.6,-0.58944 6.9295,-2.34097 9.3644,-3.55573 14.376,-7.1721 1.0428,-0.7525 2.0508,-1.42471 2.24,-1.4938 0.1892,-0.0691 0.7724,-0.42598 1.296,-0.79308 2.535,-1.77725 7.0594,-3.57903 11.0342,-4.3942 1.6902,-0.34664 8.8731,-0.10499 11.0939,0.37322 0.8579,0.18475 2.3519,0.47837 3.3199,0.65249 0.968,0.17412 2.01,0.45397 2.3157,0.62189 0.3056,0.16792 0.7993,0.3053 1.0972,0.3053 0.2979,0 0.9839,0.14084 1.5244,0.31297 3.5801,1.14017 5.2234,1.68116 5.7827,1.9037 2.2176,0.88239 3.465,1.07517 6.5572,1.01338 1.8495,-0.037 3.8668,-0.12382 4.4828,-0.19301 0.616,-0.0692 3.1491,-0.22473 5.629,-0.34565 4.1158,-0.20068 4.6977,-0.15887 6.6731,0.47933 2.4192,0.78152 3.782,1.65697 4.2795,2.74901 0.2828,0.62043 3.2782,2.37456 4.1186,2.41178 0.1429,0.006 0.6638,0.34209 1.1575,0.74613 1.2873,1.05346 0.5993,1.46345 -2.695,1.60593 -1.4755,0.0638 -3.6187,0.36852 -4.7627,0.67714 -2.4536,0.66193 -6.879,0.77406 -7.9334,0.20103 -1.028,-0.55871 -3.71,-0.51269 -6.3066,0.1082 -1.8131,0.43356 -7.0284,2.15037 -7.8974,2.59974 -1.2926,0.66842 -2.4001,2.34408 -2.6243,3.97032 -0.189,1.37221 0.7292,5.95684 1.6825,8.4 0.1888,0.484 0.2785,0.88 0.1992,0.88 -0.079,0 0.01,0.396 0.1964,0.88 0.1872,0.484 0.3879,1.096 0.4458,1.36 0.058,0.264 0.5625,2.208 1.1211,4.32 0.5587,2.112 1.0719,4.128 1.1405,4.48 0.069,0.352 0.2745,1.36 0.4573,2.24 0.1828,0.88 0.4072,1.96 0.4985,2.4 0.6362,3.06526 0.9135,22.1534 0.3416,23.52 -0.1473,0.352 -0.2888,1.432 -0.3145,2.4 l -0.047,1.76 -1.2781,0.16 c -1.1207,0.1403 -1.2984,0.27775 -1.4425,1.11609 -0.2517,1.46438 -1.1306,1.39841 -2.7466,-0.20614 -0.77,-0.76447 -1.4037,-1.60595 -1.4083,-1.86995 -0.011,-0.60475 -0.7909,0.86486 -1.0883,2.04957 -0.1855,0.73937 -0.3014,0.82145 -0.6967,0.49341 -0.3912,-0.32469 -0.4389,-0.30165 -0.2726,0.13176 0.2997,0.78081 -0.053,0.63701 -0.8155,-0.333 z m 8.1486,-3.80476 c 0.7884,-0.67534 0.7026,-0.65005 -0.48,0.14146 -0.792,0.53009 -1.872,1.34379 -2.4,1.80823 -0.8078,0.71053 -0.7316,0.6881 0.48,-0.14147 0.792,-0.54224 1.872,-1.35594 2.4,-1.80822 z m -17.12,-9.51481 c 0,-0.0538 -0.36,-0.58578 -0.8,-1.18217 -0.44,-0.59638 -0.8,-0.97853 -0.8,-0.84921 0,0.12932 0.3151,0.6613 0.7002,1.18217 0.6396,0.86513 0.8998,1.1107 0.8998,0.84921 z m -9.68,-11.89242 c -0.308,-0.42357 -0.56,-0.86868 -0.56,-0.98912 0,-0.33733 0.9562,0.53437 1.3087,1.19306 0.4547,0.84949 -0.091,0.70094 -0.7487,-0.20394 z M 185.6186,465.937 c -0.7728,-0.14155 -1.5179,-0.18764 -1.6558,-0.10241 -0.1379,0.0852 -1.7376,-0.0685 -3.5549,-0.34153 -1.8173,-0.27307 -3.8082,-0.50564 -4.4242,-0.51682 -0.616,-0.0112 -3.5151,-0.36784 -6.4425,-0.79257 -2.9274,-0.42473 -6.5052,-0.84201 -7.9508,-0.92728 -1.4456,-0.0853 -2.7504,-0.23053 -2.8997,-0.32278 -0.1493,-0.0923 -1.3954,-0.22892 -2.7692,-0.30371 -2.0766,-0.11306 -2.5922,-0.25261 -3.0578,-0.82757 -0.308,-0.38037 -0.56,-0.89614 -0.56,-1.14615 0,-0.31192 -0.3264,-0.43561 -1.04,-0.39415 -1.5782,0.0917 -5.1481,-0.38973 -5.6,-0.7552 -0.951,-0.76923 -0.4135,-1.36103 1.7611,-1.9389 1.1874,-0.31554 2.5909,-0.70547 3.1189,-0.86649 1.6187,-0.49367 6.0247,-1.61907 7.04,-1.79822 0.528,-0.0932 1.248,-0.22328 1.6,-0.28915 0.352,-0.0659 1.144,-0.19413 1.76,-0.28502 0.7561,-0.11156 6.24,-1.11988 6.24,-1.14734 0,-3e-5 0,-4.80986 0,-10.6885 0,-9.92138 -0.039,-10.66774 -0.539,-10.4 -0.2964,0.15864 -0.8999,0.28844 -1.3411,0.28844 -0.4411,0 -0.8911,0.144 -0.9999,0.32 -0.1088,0.176 -0.482,0.32 -0.8295,0.32 -0.7798,0 -3.6804,1.44218 -4.0325,2.00491 -0.1419,0.22679 -0.906,0.91024 -1.698,1.51877 -0.792,0.60854 -1.584,1.28077 -1.76,1.49386 -0.9823,1.18928 -2.8143,0.64183 -3.2124,-0.95991 -0.3101,-1.24773 1.7177,-4.73264 3.8222,-6.56881 1.0394,-0.90685 2.068,-1.64882 2.2858,-1.64882 0.2177,0 0.4788,-0.216 0.5801,-0.48 0.1013,-0.264 0.3927,-0.48 0.6476,-0.48 0.2549,0 0.5114,-0.11507 0.57,-0.25572 0.1253,-0.30033 5.2724,-3.74449 7.1386,-4.77675 7.5535,-4.178 11.0804,-4.92782 23.5815,-5.01326 2.7573,-0.0188 5.1189,-0.1398 5.2479,-0.2688 0.3098,-0.30994 1.2977,-7.09135 1.271,-8.72546 -0.02,-1.23714 -0.058,-1.28127 -1.1366,-1.31763 -1.6089,-0.0542 -8.0208,-0.42627 -11.1957,-0.64956 -1.496,-0.10521 -3.008,-0.19377 -3.36,-0.19679 -0.352,-0.003 -1.9214,-0.4126 -3.4877,-0.91018 -1.5662,-0.49758 -2.9766,-0.82499 -3.1342,-0.72758 -0.2803,0.17323 -1.0333,0.27666 -4.2421,0.58271 -2.03,0.19362 -2.7237,-0.28682 -1.6423,-1.13747 0.422,-0.33193 0.9174,-0.6035 1.1009,-0.6035 0.1835,0 0.4488,-0.19969 0.5895,-0.44375 0.1407,-0.24406 0.9759,-0.68196 1.8559,-0.97311 1.8143,-0.60024 7.1929,-2.61698 8.64,-3.23962 0.528,-0.22718 1.6271,-0.64585 2.4424,-0.9304 1.5059,-0.52553 1.8776,-1.14059 1.8776,-3.10663 0,-0.33743 0.1418,-0.78743 0.3152,-1 0.1733,-0.21257 0.6799,-0.8423 1.1256,-1.39939 1.2831,-1.60352 3.7037,-2.82554 6.878,-3.47223 0.5499,-0.11205 1.9148,-0.62661 3.4364,-1.29554 0.5746,-0.25264 1.5488,-0.67533 2.1648,-0.93933 0.616,-0.264 1.588,-0.68419 2.16,-0.93374 1.5557,-0.67871 5.5663,-1.99807 7.92,-2.6054 2.6865,-0.6932 9.7915,-0.85252 13.2559,-0.29725 1.4213,0.22779 2.6923,0.34755 2.8245,0.26613 0.3304,-0.2034 11.1871,1.39307 13.3596,1.96452 1.7036,0.44809 3.4051,0.76663 11.2,2.09672 5.7772,0.98578 12.3446,0.82856 15.7879,-0.37797 4.1569,-1.45656 8.5746,-0.59864 12.0856,2.34703 0.7736,0.64902 2.6936,1.84662 4.2668,2.66133 5.1802,2.68265 4.7753,3.29481 -2.7316,4.13033 -0.8092,0.0901 -2.1772,0.32519 -3.04,0.5225 -0.8628,0.19731 -2.0007,0.42959 -2.5287,0.51618 -0.528,0.0866 -1.32,0.22374 -1.76,0.30478 -2.3478,0.43243 -4.123,0.36998 -8.48,-0.29833 -4.765,-0.73089 -4.814,-0.73189 -6.72,-0.13616 -1.056,0.33006 -2.136,0.64066 -2.4,0.69024 -1.6974,0.31874 -2.5648,0.63576 -2.5968,0.94909 -0.047,0.45954 0.04,1.42028 0.2206,2.44 0.4282,2.41469 1.1462,6.97205 1.279,8.11897 0.084,0.72656 0.2547,1.96903 0.3789,2.76103 0.4917,3.13671 0.1222,42.22274 -0.4392,46.45503 -0.2124,1.60141 -0.2662,1.64492 -1.9225,1.55631 -0.8209,-0.0439 -1.036,0.0898 -1.2008,0.74633 -0.1104,0.43991 -0.6134,1.09369 -1.1178,1.45285 -0.865,0.61592 -0.9443,0.62168 -1.3955,0.10125 -0.263,-0.30348 -0.7354,-1.24048 -1.0496,-2.08223 -0.6496,-1.74038 -0.991,-2.08831 -1.2497,-1.2734 -0.099,0.31099 -0.469,0.7463 -0.823,0.96736 -1.3499,0.84304 -2.4381,-0.81934 -2.7941,-4.2686 -0.1621,-1.57118 -0.2921,-1.82333 -1.1759,-2.28088 -1.8988,-0.9831 -12.2964,-0.43616 -17.7666,0.93457 -1.5546,0.38956 -4.7436,1.98628 -10.2057,5.10995 -2.6159,1.49594 -9.123,4.64744 -10.6857,5.1752 -1.5751,0.53194 -2.1685,0.67048 -5.0556,1.18023 -2.0342,0.35918 -10.0559,0.32039 -12.1251,-0.0586 z m 36.1841,-19.83273 c 1.5284,-0.50663 3.3284,-1.0044 4,-1.10614 0.6715,-0.10174 1.581,-0.24819 2.021,-0.32545 1.5145,-0.2659 3.3646,-0.43931 5.36,-0.50237 1.1717,-0.037 1.9986,-0.20515 1.9965,-0.40593 -0.01,-0.74008 -1.8155,-5.87118 -3.5035,-9.94273 -0.1459,-0.352 -0.5139,-1.36 -0.8177,-2.24 -0.3039,-0.88 -0.726,-1.888 -0.938,-2.24 -0.2121,-0.352 -0.5771,-1.36 -0.8111,-2.24 -0.234,-0.88 -0.5335,-1.744 -0.6655,-1.92 -0.132,-0.176 -0.7742,-1.688 -1.427,-3.36 -0.6529,-1.67199 -1.373,-3.47199 -1.6002,-3.99999 -0.2272,-0.528 -0.6627,-1.64506 -0.9677,-2.48236 -0.6422,-1.76304 -1.2477,-1.63095 -1.5338,0.33461 -0.2738,1.88051 -0.9996,4.802 -1.257,5.0594 -0.1292,0.12926 -0.235,0.64497 -0.235,1.14602 0,0.50105 -0.1383,1.16105 -0.3073,1.46667 -0.285,0.51509 -1.4824,4.96334 -1.8294,6.79565 -0.083,0.44 -0.2738,1.088 -0.4233,1.44 -0.1495,0.352 -0.3446,1 -0.4336,1.44 -0.1915,0.94643 -0.8626,3.40468 -2.1839,8 -0.1771,0.616 -0.3966,1.58934 -0.4876,2.16297 -0.091,0.57363 -0.2937,1.12213 -0.4502,1.21889 -0.1566,0.0967 -0.284,0.56342 -0.2831,1.03703 0.001,0.68812 0.2424,0.96576 1.2,1.38203 1.3701,0.59555 1.7685,0.54425 5.5774,-0.7183 z M 88.6586,378.89701 c -0.7728,-0.14156 -1.5179,-0.18765 -1.6558,-0.10242 -0.1379,0.0852 -1.7376,-0.0685 -3.5549,-0.34153 -1.8173,-0.27307 -3.8082,-0.50564 -4.4242,-0.51682 -0.616,-0.0112 -3.5151,-0.36783 -6.4425,-0.79256 -2.9273,-0.42473 -6.5052,-0.84201 -7.9508,-0.92729 -1.4456,-0.0853 -2.7504,-0.23053 -2.8997,-0.32277 -0.1493,-0.0922 -1.3954,-0.22892 -2.7692,-0.30372 -2.0766,-0.11306 -2.5922,-0.25261 -3.0578,-0.82757 -0.308,-0.38037 -0.56,-0.89613 -0.56,-1.14615 0,-0.31191 -0.3264,-0.43561 -1.04,-0.39415 -1.5782,0.0917 -5.1481,-0.38972 -5.6,-0.7552 -0.951,-0.76923 -0.4135,-1.36103 1.7611,-1.93889 1.1874,-0.31555 2.5909,-0.70547 3.1189,-0.8665 1.6187,-0.49366 6.0246,-1.61907 7.04,-1.79822 0.528,-0.0932 1.248,-0.22328 1.6,-0.28915 0.352,-0.0659 1.144,-0.19413 1.76,-0.28502 0.7561,-0.11155 6.24,-1.11987 6.24,-1.14734 0,-3e-5 0,-4.80985 0,-10.6885 0,-9.92137 -0.039,-10.66774 -0.539,-10.4 -0.2964,0.15865 -0.8999,0.28845 -1.3411,0.28845 -0.4411,0 -0.8911,0.144 -0.9999,0.32 -0.1088,0.176 -0.482,0.32 -0.8295,0.32 -0.7798,0 -3.6804,1.44218 -4.0325,2.0049 -0.1419,0.22679 -0.906,0.91024 -1.698,1.51878 -0.792,0.60853 -1.584,1.28077 -1.76,1.49386 -0.9823,1.18927 -2.8143,0.64183 -3.2124,-0.95992 -0.3101,-1.24773 1.7177,-4.73263 3.8222,-6.5688 1.0394,-0.90685 2.068,-1.64882 2.2858,-1.64882 0.2178,0 0.4788,-0.216 0.5801,-0.48 0.1013,-0.264 0.3927,-0.48 0.6476,-0.48 0.2549,0 0.5114,-0.11508 0.57,-0.25573 0.1253,-0.30033 5.2724,-3.74449 7.1386,-4.77674 7.5821,-4.19385 11.0148,-4.91817 23.7657,-5.01463 6.5533,-0.0496 6.5495,-0.0516 6.5359,3.41894 l -0.01,2.44149 1.6581,-0.67472 c 5.0609,-2.05953 8.538,-2.26377 8.538,-0.50152 0,0.75622 -1.3496,3.1362 -2.8596,5.04291 -1.5545,1.96284 -2.3828,3.16961 -3.0157,4.39344 -0.6735,1.30245 -0.4941,2.61453 0.9861,7.21392 1.2638,3.92713 1.0619,3.74354 5.6892,5.172 1.584,0.48899 3.13,1.01767 3.4356,1.17485 0.3056,0.15719 0.7756,0.28579 1.0444,0.28579 0.2687,0 0.7387,0.12642 1.0443,0.28093 2.8468,1.43931 2.9625,1.43788 7.5418,-0.0935 1.3784,-0.46094 3.0344,-0.9186 3.68,-1.01701 0.6456,-0.0984 1.5339,-0.24196 1.9739,-0.31898 2.8925,-0.5063 8.014,-0.68004 9.44,-0.32023 1.8269,0.46095 3.5634,1.47396 5.2605,3.06877 1.147,1.07794 3.1524,2.51764 4.6595,3.34512 1.7169,0.94274 2.72,1.72439 2.72,2.11966 0,0.33747 -1.8713,0.89026 -3.04,0.89804 -0.528,0.004 -2.04,-0.14773 -3.36,-0.3361 -5.1695,-0.73768 -14.6086,-0.22227 -19.813,1.08187 -1.5547,0.38957 -4.7437,1.98629 -10.2058,5.10995 -2.6158,1.49595 -9.123,4.64744 -10.6857,5.17521 -1.575,0.53193 -2.1685,0.67047 -5.0555,1.18022 -2.0343,0.35918 -10.0559,0.32039 -12.1251,-0.0586 z"
     id="path182-9"
     inkscape:connector-curvature="0" />
  <path
     style="fill:#806600;stroke-width:0.31999999"
     d="m 520.35803,555.92215 c -0.3714,-0.47204 -0.5978,-1.05974 -0.5033,-1.306 0.095,-0.24625 -0.044,-0.75608 -0.3082,-1.13294 -0.2639,-0.37686 -0.4799,-0.98491 -0.4799,-1.35123 0,-0.36631 -0.5025,-1.15307 -1.1167,-1.74834 -0.6403,-0.62065 -1.2018,-1.53618 -1.3162,-2.14631 -0.1098,-0.58519 -0.3163,-1.13609 -0.4589,-1.22422 -0.1426,-0.0881 -0.4909,-0.85763 -0.774,-1.71002 -0.4454,-1.34097 -0.6319,-1.55125 -1.3845,-1.56062 -2.7549,-0.0343 -2.9971,-0.13458 -3.9483,-1.6345 -0.5068,-0.79908 -0.9266,-1.74867 -0.9329,-2.11021 -0.01,-0.36154 -0.3791,-1.08935 -0.8284,-1.61735 -0.589,-0.69209 -0.7166,-0.75907 -0.4573,-0.24 0.5141,1.02897 0.1298,0.89092 -1.1295,-0.40582 -1.1468,-1.18092 -1.4328,-1.95293 -0.6059,-1.63562 0.394,0.15118 0.4243,0.0691 0.1583,-0.42794 -0.181,-0.33824 -0.4724,-0.70349 -0.6474,-0.81168 -0.1751,-0.10819 -0.3183,-0.76421 -0.3183,-1.45783 0,-1.12646 -0.084,-1.26111 -0.7874,-1.26111 -0.433,0 -0.9395,-0.18 -1.1254,-0.4 -1.1441,-1.35365 -3.5272,-4.74454 -3.5272,-5.01881 0,-0.17993 -0.504,-1.40365 -1.12,-2.71937 -0.616,-1.31573 -1.12,-2.46812 -1.12,-2.56087 0,-0.0928 -0.5569,-1.35942 -1.2376,-2.8148 -0.6806,-1.45538 -1.5644,-3.36615 -1.9638,-4.24615 -2.1893,-4.82387 -3.4878,-7.46322 -3.752,-7.62646 -0.1633,-0.10098 -1.7977,-0.27811 -3.6318,-0.39364 -1.8341,-0.11552 -3.9108,-0.25495 -4.6148,-0.30984 -3.5916,-0.28003 -7.4954,-0.55469 -8.5984,-0.60497 -0.8487,-0.0387 -1.6039,-0.35905 -2.4,-1.01801 -1.0545,-0.87293 -1.6182,-1.02892 -6.1148,-1.69222 -2.7242,-0.40187 -5.1987,-0.86211 -5.4989,-1.02276 -0.3002,-0.16065 -0.9873,-0.2921 -1.5268,-0.2921 -0.5396,0 -0.9811,-0.1272 -0.9811,-0.28268 0,-0.15547 -0.288,-0.35799 -0.64,-0.45004 -1.9486,-0.50956 0.027,-1.40063 8.32,-3.75193 1.32,-0.37427 2.688,-0.79981 3.04,-0.94563 0.352,-0.14582 1.072,-0.41107 1.6,-0.58944 6.9296,-2.34097 9.3645,-3.55573 14.376,-7.1721 1.0428,-0.7525 2.0508,-1.42471 2.24,-1.4938 0.1892,-0.0691 0.7724,-0.42598 1.296,-0.79308 2.535,-1.77725 7.0594,-3.57903 11.0342,-4.3942 1.6902,-0.34664 8.8731,-0.10499 11.0939,0.37322 0.858,0.18475 2.3519,0.47836 3.3199,0.65249 0.968,0.17412 2.0101,0.45397 2.3157,0.62189 0.3056,0.16791 0.7994,0.3053 1.0973,0.3053 0.2978,0 0.9838,0.14084 1.5243,0.31297 3.5801,1.14017 5.2234,1.68116 5.7827,1.9037 2.2176,0.88239 3.465,1.07517 6.5572,1.01337 1.8495,-0.037 3.8668,-0.12381 4.4828,-0.193 0.616,-0.0692 3.1491,-0.22473 5.629,-0.34565 4.1158,-0.20068 4.6977,-0.15888 6.6732,0.47933 2.4191,0.78152 3.7819,1.65697 4.2795,2.749 0.2827,0.62044 3.2781,2.37457 4.1185,2.41179 0.1429,0.006 0.6638,0.34209 1.1575,0.74613 1.2873,1.05346 0.5993,1.46345 -2.695,1.60592 -1.4755,0.0638 -3.6187,0.36853 -4.7627,0.67715 -2.4536,0.66193 -6.879,0.77406 -7.9334,0.20102 -1.028,-0.5587 -3.71,-0.51268 -6.3066,0.10821 -1.8131,0.43355 -7.0284,2.15037 -7.8974,2.59974 -1.2926,0.66842 -2.4001,2.34408 -2.6242,3.97032 -0.1891,1.37221 0.7291,5.95684 1.6824,8.4 0.1889,0.484 0.2785,0.88 0.1992,0.88 -0.079,0 0.01,0.396 0.1963,0.88 0.1873,0.484 0.388,1.096 0.4459,1.36 0.058,0.264 0.5625,2.208 1.1211,4.32 0.5587,2.112 1.0719,4.128 1.1406,4.48 0.069,0.352 0.2744,1.36 0.4572,2.24 0.1829,0.88 0.4072,1.96 0.4985,2.4 0.6362,3.06526 0.9135,22.1534 0.3416,23.52 -0.1473,0.352 -0.2888,1.432 -0.3145,2.4 l -0.047,1.76 -1.2781,0.16 c -1.1207,0.14029 -1.2984,0.27775 -1.4425,1.11609 -0.2517,1.46437 -1.1306,1.39841 -2.7466,-0.20614 -0.77,-0.76447 -1.4037,-1.60595 -1.4083,-1.86995 -0.011,-0.60475 -0.7909,0.86486 -1.0882,2.04957 -0.1856,0.73937 -0.3015,0.82145 -0.6968,0.49341 -0.3912,-0.32469 -0.4389,-0.30165 -0.2726,0.13176 0.2997,0.78081 -0.053,0.63701 -0.8155,-0.333 z m 8.1486,-3.80476 c 0.7884,-0.67534 0.7026,-0.65005 -0.48,0.14146 -0.792,0.53009 -1.872,1.34379 -2.4,1.80823 -0.8078,0.71053 -0.7316,0.6881 0.48,-0.14147 0.792,-0.54225 1.872,-1.35595 2.4,-1.80822 z m -17.12,-9.51481 c 0,-0.0538 -0.36,-0.58578 -0.8,-1.18217 -0.44,-0.59639 -0.8,-0.97853 -0.8,-0.84921 0,0.12932 0.3151,0.66129 0.7002,1.18217 0.6396,0.86512 0.8998,1.1107 0.8998,0.84921 z m -9.68,-11.89242 c -0.308,-0.42358 -0.56,-0.86868 -0.56,-0.98912 0,-0.33733 0.9562,0.53437 1.3087,1.19305 0.4547,0.8495 -0.091,0.70095 -0.7487,-0.20393 z m 113.5612,-61.19526 c -0.07,-0.0702 -1.6203,-0.18862 -3.4445,-0.26307 -5.4323,-0.2217 -8.5074,-0.43754 -9.4594,-0.66396 -1.0748,-0.25563 -2.0173,-1.01775 -2.0173,-1.6312 0,-0.35578 -0.4633,-0.40707 -2.32,-0.25686 -2.6917,0.21775 -8.4617,1.03044 -10.32,1.45352 -2.0014,0.45568 -4.2564,0.36352 -5.1313,-0.20972 -0.4338,-0.28424 -0.7887,-0.62024 -0.7887,-0.74667 0,-0.65201 2.5469,-2.63132 4.2772,-3.324 1.085,-0.43436 2.8345,-1.17907 3.8878,-1.65491 3.9716,-1.79429 4.8124,-2.1652 5.435,-2.39762 0.352,-0.1314 1.288,-0.53587 2.08,-0.89882 0.792,-0.36294 2.3628,-1.06518 3.4906,-1.56053 1.1278,-0.49536 3.5038,-1.63326 5.28,-2.52867 5.1688,-2.60569 5.3136,-3.40322 2.5516,-14.05198 -0.5112,-1.9711 -1.3106,-5.26279 -1.5542,-6.4 -0.075,-0.352 -0.3694,-1.504 -0.6535,-2.56 -0.5742,-2.13516 -1.1123,-4.22923 -1.2745,-4.96 -0.059,-0.264 -0.2539,-1.056 -0.434,-1.76 -0.18,-0.704 -0.5706,-2.28799 -0.868,-3.51999 -0.3126,-1.29564 -0.9083,-2.71219 -1.413,-3.36 -1.6132,-2.07108 -1.8538,-3.11904 -1.1231,-4.89192 0.1426,-0.34599 0.052,-0.78844 -0.2294,-1.12 -0.5523,-0.65066 -1.5325,-2.73074 -1.5325,-3.25191 0,-0.2019 0.2688,-0.92337 0.5973,-1.60327 0.5906,-1.22253 0.5899,-1.24352 -0.069,-1.902 -0.8544,-0.85437 -0.9014,-3.55223 -0.089,-5.09389 0.3748,-0.71115 0.4572,-1.18778 0.2488,-1.44 -0.1713,-0.20736 -0.407,-0.88808 -0.5237,-1.51272 -0.1915,-1.02522 -0.09,-1.25393 1.0399,-2.35084 l 1.252,-1.21513 -0.5397,-1.96917 c -0.7295,-2.66182 -0.9765,-4.36915 -0.6322,-4.36915 0.5181,0 2.0589,0.76645 3.1237,1.55379 0.5768,0.4265 1.114,0.71009 1.1939,0.63021 0.08,-0.0799 -0.2928,-1.50397 -0.8282,-3.16462 -0.5354,-1.66066 -1.0264,-3.30738 -1.0912,-3.65938 -0.065,-0.352 -0.2168,-0.964 -0.3379,-1.36 -0.3824,-1.25142 0.3612,-0.79878 2.3027,1.40164 1.0296,1.16691 2.3393,2.64291 2.9104,3.28 0.5712,0.6371 1.0392,1.26636 1.04,1.39836 10e-4,0.132 0.1624,0.24 0.3589,0.24 0.2224,0 0.2742,-0.27183 0.1373,-0.72 -0.1211,-0.396 -0.2798,-1.008 -0.3527,-1.36 -0.073,-0.352 -0.2796,-1.288 -0.4592,-2.08 -0.8583,-3.78449 -0.9711,-5.24018 -0.5145,-6.64 0.3294,-1.00986 0.9517,-0.89871 2.2528,0.40237 1.0209,1.0209 1.8211,2.47718 3.076,5.59763 0.4498,1.11854 0.4511,1.1152 0.9928,-2.56 0.2983,-2.024 0.5532,-3.86 0.5663,-4.08 0.013,-0.22 0.2854,-0.4 0.605,-0.4 0.4038,0 0.8551,0.61035 1.4789,2 0.4937,1.1 0.9963,2.216 1.1168,2.48 0.1205,0.264 0.6313,1.73663 1.1352,3.27252 0.8818,2.68813 0.947,2.78494 1.742,2.58938 0.4543,-0.11173 1.134,-0.40248 1.5105,-0.64611 l 0.6846,-0.44296 -0.7409,-1.53584 c -1.0916,-2.26273 -1.8065,-4.97341 -1.5652,-5.93477 0.2397,-0.95513 1.0012,-1.46222 2.1959,-1.46222 0.4516,0 0.8368,-0.108 0.8561,-0.24 0.019,-0.132 0.09,-1.16227 0.1561,-2.28948 0.067,-1.12722 0.1876,-2.11595 0.2688,-2.19718 0.081,-0.0812 0.839,0.50073 1.6839,1.29324 3.5485,3.32852 4.3819,4.05437 4.5089,3.92733 0.074,-0.0737 -0.1109,-0.611 -0.4102,-1.19397 -0.6906,-1.34493 -2.7225,-7.15545 -2.7225,-7.78529 0,-1.05925 1.4744,-0.45779 3.093,1.2617 l 1.6344,1.73635 0.1261,-3.13899 c 0.1318,-3.28189 0.5849,-4.51892 1.4057,-3.83771 0.4515,0.37465 2.3565,4.20693 3.3719,6.78299 1.0846,2.75162 1.1666,2.85108 1.9784,2.39777 0.3907,-0.21822 0.8256,-0.57676 0.9664,-0.79676 0.1407,-0.22 0.4527,-0.4 0.6933,-0.4 0.2406,0 0.4854,-0.11508 0.5441,-0.25573 0.1253,-0.30033 5.2724,-3.74449 7.1386,-4.77674 7.582,-4.19385 11.0148,-4.91817 23.7656,-5.01463 6.5534,-0.0496 6.5496,-0.0516 6.536,3.41894 l -0.01,2.44149 1.658,-0.67472 c 5.061,-2.05953 8.538,-2.26377 8.538,-0.50152 0,0.75622 -1.3496,3.1362 -2.8596,5.04291 -1.5544,1.96284 -2.3828,3.16961 -3.0156,4.39344 -0.6735,1.30245 -0.4942,2.61453 0.986,7.21392 1.2639,3.92713 1.0619,3.74354 5.6892,5.172 1.584,0.48899 3.1301,1.01767 3.4357,1.17485 0.3056,0.15718 0.7755,0.28579 1.0443,0.28579 0.2688,0 0.7387,0.12642 1.0444,0.28093 2.8468,1.43931 2.9624,1.43788 7.5418,-0.0935 1.3784,-0.46094 3.0344,-0.9186 3.68,-1.01702 0.6456,-0.0984 1.5338,-0.24195 1.9738,-0.31897 2.8925,-0.5063 8.014,-0.68004 9.44,-0.32023 1.8269,0.46095 3.5634,1.47396 5.2605,3.06877 1.1471,1.07794 3.1525,2.51763 4.6595,3.34512 1.717,0.94274 2.72,1.72439 2.72,2.11966 0,0.33747 -1.8713,0.89026 -3.04,0.89804 -0.528,0.004 -2.04,-0.14773 -3.36,-0.3361 -5.1695,-0.73768 -14.6086,-0.22227 -19.813,1.08187 -1.5546,0.38957 -4.7436,1.98629 -10.2057,5.10995 -2.6159,1.49595 -9.123,4.64744 -10.6857,5.17521 -3.6599,1.23602 -6.8605,1.57863 -12.5576,1.34421 -2.8259,-0.11628 -5.498,-0.22469 -5.938,-0.24092 -0.44,-0.0162 -2.168,-0.2175 -3.84,-0.44727 -1.672,-0.22977 -4.2197,-0.49829 -5.6615,-0.59671 -1.4418,-0.0984 -2.8708,-0.27463 -3.1755,-0.39156 -0.4463,-0.17124 -0.5077,-0.0928 -0.3156,0.40294 0.6307,1.62814 0.3817,6.08965 -0.4451,7.97556 -0.5297,1.20829 -2.1671,13.74196 -2.0401,15.61621 0.069,1.02091 0.4117,3.82891 0.7611,6.24 0.3493,2.41108 0.6367,4.52778 0.6385,4.70378 0,0.29886 1.4398,1.12 1.9597,1.12 0.1286,0 1.1672,0.432 2.3079,0.96 1.1408,0.528 2.3028,0.96 2.5824,0.96 0.2795,0 0.5082,0.12421 0.5082,0.27602 0,0.1518 3.06,0.23979 6.8,0.19552 6.4683,-0.0766 11.454,-0.60541 13.4506,-1.42672 1.326,-0.54546 5.4563,-1.31817 7.2462,-1.35563 3.5654,-0.0746 4.3422,0.2388 7.2235,2.91476 1.4536,1.35005 3.444,2.84686 4.423,3.32623 2.0665,1.01185 2.3908,1.39291 1.7396,2.04408 -0.7148,0.71477 -2.5785,1.05763 -6.6429,1.22205 -12.5613,0.50815 -13.9661,0.58282 -17.92,0.95257 -1.144,0.10698 -2.584,0.35411 -3.2,0.54916 -1.3479,0.42682 -5.6261,2.49333 -7.84,3.787 -2.9989,1.75236 -12.4707,6.33987 -16.015,7.75657 -1.9442,0.77715 -4.6802,1.66741 -6.08,1.97836 -1.3997,0.31096 -2.9197,0.67977 -3.3777,0.81958 -0.823,0.25122 -22.8793,0.34177 -23.1261,0.0949 z m 32.9188,-83.26293 c 0,-9.77137 -0.039,-10.5077 -0.539,-10.24 -0.2964,0.15865 -0.8999,0.28845 -1.3411,0.28845 -0.4412,0 -0.8911,0.144 -0.9999,0.32 -0.1088,0.176 -0.4734,0.32 -0.8103,0.32 -0.9073,0 -3.5097,1.34423 -3.5097,1.81291 0,0.22295 0.2369,0.95026 0.5264,1.61623 0.8937,2.05605 1.3137,3.07573 1.8824,4.57086 0.3013,0.792 0.6574,1.728 0.7912,2.08 0.1339,0.352 0.4881,1.288 0.7872,2.08 0.2991,0.792 0.7483,1.84767 0.9983,2.34593 0.25,0.49826 0.4545,1.0525 0.4545,1.23164 0,0.17914 0.1958,0.77947 0.435,1.33406 0.2393,0.5546 0.5962,1.40437 0.7932,1.88837 0.1969,0.484 0.3972,0.87999 0.4449,0.87999 0.048,0 0.087,-4.73781 0.087,-10.52844 z m 170.7549,70.96379 c -0.7728,-0.14155 -1.5179,-0.18764 -1.6558,-0.10241 -0.1379,0.0852 -1.7376,-0.0685 -3.5549,-0.34153 -1.8173,-0.27307 -3.8082,-0.50564 -4.4242,-0.51682 -0.616,-0.0112 -3.5151,-0.36784 -6.4425,-0.79257 -2.9273,-0.42473 -6.5052,-0.84201 -7.9508,-0.92728 -1.4456,-0.0853 -2.7504,-0.23053 -2.8997,-0.32278 -0.1493,-0.0923 -1.3954,-0.22892 -2.7692,-0.30371 -2.0766,-0.11306 -2.5922,-0.25261 -3.0578,-0.82757 -0.308,-0.38037 -0.56,-0.89614 -0.56,-1.14615 0,-0.31191 -0.3264,-0.43561 -1.04,-0.39415 -1.5782,0.0917 -5.1482,-0.38973 -5.6,-0.7552 -0.951,-0.76923 -0.4135,-1.36103 1.7611,-1.9389 1.1874,-0.31554 2.5909,-0.70547 3.1189,-0.86649 1.6187,-0.49367 6.0246,-1.61907 7.04,-1.79822 0.528,-0.0932 1.248,-0.22328 1.6,-0.28915 0.352,-0.0659 1.144,-0.19413 1.76,-0.28502 0.7561,-0.11156 6.24,-1.11988 6.24,-1.14734 0,-3e-5 0,-4.80986 0,-10.6885 0,-9.92138 -0.039,-10.66774 -0.539,-10.4 -0.2964,0.15864 -0.8999,0.28844 -1.3411,0.28844 -0.4411,0 -0.8911,0.144 -0.9999,0.32 -0.1088,0.176 -0.482,0.32 -0.8295,0.32 -0.7798,0 -3.6804,1.44218 -4.0325,2.00491 -0.1419,0.22679 -0.906,0.91024 -1.698,1.51877 -0.792,0.60854 -1.584,1.28077 -1.76,1.49386 -0.9823,1.18928 -2.8143,0.64183 -3.2124,-0.95991 -0.3101,-1.24773 1.7177,-4.73264 3.8222,-6.56881 1.0394,-0.90685 2.068,-1.64881 2.2858,-1.64881 0.2178,0 0.4788,-0.216 0.5801,-0.48 0.1013,-0.264 0.3928,-0.48 0.6476,-0.48 0.2549,0 0.5114,-0.11508 0.5701,-0.25573 0.1252,-0.30033 5.2723,-3.74449 7.1385,-4.77675 7.5821,-4.19384 11.0148,-4.91816 23.7657,-5.01462 6.5534,-0.0496 6.5495,-0.0516 6.5359,3.41894 l -0.01,2.44149 1.6581,-0.67472 c 5.0609,-2.05953 8.538,-2.26377 8.538,-0.50152 0,0.75621 -1.3496,3.1362 -2.8596,5.04291 -1.5545,1.96284 -2.3828,3.16961 -3.0157,4.39344 -0.6735,1.30245 -0.4941,2.61453 0.9861,7.21392 1.2638,3.92712 1.0619,3.74354 5.6892,5.172 1.584,0.48899 3.13,1.01767 3.4356,1.17485 0.3057,0.15718 0.7756,0.28578 1.0444,0.28578 0.2687,0 0.7387,0.12642 1.0443,0.28094 2.8468,1.43931 2.9625,1.43788 7.5418,-0.0935 1.3784,-0.46094 3.0344,-0.9186 3.68,-1.01702 0.6456,-0.0984 1.5339,-0.24196 1.9739,-0.31897 2.8925,-0.5063 8.014,-0.68004 9.44,-0.32024 1.8269,0.46095 3.5634,1.47397 5.2605,3.06877 1.147,1.07795 3.1524,2.51764 4.6595,3.34512 1.7169,0.94275 2.72,1.7244 2.72,2.11967 0,0.33747 -1.8713,0.89025 -3.04,0.89803 -0.528,0.004 -2.04,-0.14772 -3.36,-0.33609 -5.1695,-0.73769 -14.6086,-0.22227 -19.813,1.08187 -1.5547,0.38956 -4.7437,1.98628 -10.2058,5.10995 -2.6158,1.49594 -9.123,4.64744 -10.6857,5.1752 -1.575,0.53194 -2.1685,0.67048 -5.0555,1.18023 -2.0343,0.35918 -10.056,0.32039 -12.1251,-0.0586 z M 511.90783,384.7149 c -0.07,-0.0702 -1.6203,-0.18862 -3.4445,-0.26307 -5.4323,-0.22169 -8.5074,-0.43754 -9.4594,-0.66395 -1.0748,-0.25563 -2.0173,-1.01776 -2.0173,-1.6312 0,-0.35578 -0.4633,-0.40708 -2.32,-0.25687 -2.6917,0.21775 -8.4617,1.03044 -10.32,1.45353 -2.0014,0.45568 -4.2564,0.36351 -5.1313,-0.20973 -0.4338,-0.28424 -0.7887,-0.62024 -0.7887,-0.74666 0,-0.65202 2.5469,-2.63132 4.2772,-3.324 1.085,-0.43436 2.8345,-1.17908 3.8878,-1.65492 5.0501,-2.2815 5.5398,-2.49115 6.5954,-2.82338 0.3644,-0.11465 0.4732,-0.41135 0.3627,-0.98901 -0.1259,-0.65894 -0.032,-0.82522 0.4668,-0.82522 0.3434,0 1.4762,-0.26825 2.5173,-0.59612 1.041,-0.32785 2.7568,-0.85557 3.8128,-1.17269 1.056,-0.31712 2.8367,-1.07927 3.9571,-1.69366 3.59,-1.9686 3.7104,-3.39837 1.1233,-13.33753 -0.2748,-1.056 -0.5718,-2.22628 -0.6598,-2.60062 -0.1503,-0.63883 -0.2171,-0.6522 -1.0881,-0.21771 -1.2039,0.6006 -2.0471,0.31007 -2.5377,-0.87436 -0.3574,-0.8628 -0.2829,-1.17947 0.8,-3.40023 1.0799,-2.21473 1.1613,-2.55868 0.8508,-3.59796 -0.4303,-1.44084 -0.6788,-2.37322 -0.8323,-3.12356 -0.066,-0.32206 -0.2672,-1.16156 -0.4473,-1.86556 -0.18,-0.704 -0.5706,-2.288 -0.868,-3.52 -0.3126,-1.29563 -0.9083,-2.71218 -1.413,-3.36 -1.6132,-2.07108 -1.8538,-3.11904 -1.1231,-4.89192 0.1426,-0.34599 0.052,-0.78843 -0.2294,-1.12 -0.5523,-0.65066 -1.5325,-2.73074 -1.5325,-3.2519 0,-0.2019 0.2688,-0.92338 0.5973,-1.60327 0.5906,-1.22253 0.5899,-1.24353 -0.069,-1.90201 -0.8544,-0.85437 -0.9014,-3.55223 -0.089,-5.09389 0.3748,-0.71114 0.4572,-1.18777 0.2488,-1.44 -0.1713,-0.20736 -0.407,-0.88808 -0.5237,-1.51272 -0.1915,-1.02522 -0.09,-1.25392 1.0399,-2.35084 l 1.252,-1.21513 -0.5397,-1.96916 c -0.7295,-2.66182 -0.9765,-4.36916 -0.6322,-4.36916 0.5181,0 2.0589,0.76645 3.1237,1.55379 0.5768,0.4265 1.114,0.7101 1.1939,0.63021 0.08,-0.0799 -0.2928,-1.50396 -0.8282,-3.16462 -0.5354,-1.66066 -1.0264,-3.30738 -1.0912,-3.65938 -0.065,-0.352 -0.2168,-0.964 -0.3379,-1.36 -0.3824,-1.25142 0.3612,-0.79878 2.3027,1.40165 1.0296,1.16691 2.3393,2.64291 2.9104,3.28 0.5712,0.63709 1.0392,1.26635 1.04,1.39835 10e-4,0.132 0.1623,0.24 0.3589,0.24 0.2224,0 0.2742,-0.27183 0.1373,-0.72 -0.1211,-0.396 -0.2798,-1.008 -0.3527,-1.36 -0.073,-0.352 -0.2796,-1.288 -0.4592,-2.08 -0.8583,-3.78449 -0.9711,-5.24017 -0.5145,-6.64 0.3294,-1.00986 0.9517,-0.89871 2.2528,0.40237 1.0209,1.0209 1.8211,2.47718 3.076,5.59763 0.4498,1.11854 0.451,1.1152 0.9928,-2.56 0.2983,-2.024 0.5532,-3.86 0.5663,-4.08 0.013,-0.22 0.2854,-0.4 0.605,-0.4 0.4038,0 0.8551,0.61035 1.4789,2 0.4937,1.1 0.9963,2.216 1.1168,2.48 0.1205,0.264 0.6313,1.73664 1.1352,3.27253 0.8818,2.68812 0.947,2.78493 1.742,2.58938 0.4543,-0.11173 1.134,-0.40248 1.5105,-0.64611 l 0.6846,-0.44296 -0.741,-1.53584 c -1.0915,-2.26274 -1.8064,-4.97342 -1.5651,-5.93478 0.2397,-0.95513 1.0012,-1.46222 2.1959,-1.46222 0.4516,0 0.8368,-0.108 0.8561,-0.24 0.019,-0.132 0.09,-1.16227 0.1561,-2.28948 0.067,-1.12722 0.1876,-2.11595 0.2688,-2.19717 0.081,-0.0812 0.839,0.50072 1.6839,1.29323 3.5485,3.32853 4.3819,4.05437 4.5089,3.92733 0.074,-0.0737 -0.1091,-0.61099 -0.4062,-1.19396 -0.521,-1.02198 -2.4066,-6.09487 -2.4066,-6.47434 0,-0.10208 0.6376,-0.18561 1.4168,-0.18561 1.217,0 1.5325,0.14668 2.2365,1.04 l 0.8197,1.04 v -1.05462 -1.05462 l 2.0927,0.0946 2.0927,0.0946 1.1411,2.72 c 0.6275,1.496 1.327,3.152 1.5543,3.68 0.2273,0.528 0.8735,2.112 1.4359,3.52 0.5624,1.408 1.212,2.992 1.4435,3.52 0.2315,0.528 0.6674,1.608 0.9687,2.4 0.3013,0.792 0.6573,1.728 0.7911,2.08 0.1339,0.352 0.4881,1.288 0.7872,2.08 0.2991,0.792 0.7483,1.84767 0.9983,2.34593 0.25,0.49826 0.4545,1.0525 0.4545,1.23164 0,0.17914 0.2019,0.77947 0.4486,1.33407 0.2467,0.5546 0.8381,2.08836 1.3141,3.40836 0.4761,1.32 1.0744,2.796 1.3296,3.28 0.2551,0.484 0.3889,0.88 0.2972,0.88 -0.092,0 0.1182,0.66473 0.4665,1.47719 0.9752,2.27515 2.2571,6.23782 2.4206,7.48281 0.1569,1.19475 -0.3717,5.17631 -0.8285,6.24 -0.3543,0.82516 -1.0707,5.60405 -0.8701,5.80464 0.084,0.0841 0.7067,-0.0786 1.3836,-0.3614 3.9671,-1.65753 7.4784,-1.69797 7.4784,-0.0861 0,0.75622 -1.3495,3.1362 -2.8595,5.04291 -1.5545,1.96284 -2.3829,3.16961 -3.0157,4.39344 -0.6735,1.30245 -0.4942,2.61453 0.986,7.21392 1.2639,3.92713 1.062,3.74354 5.6892,5.172 1.584,0.48899 3.1301,1.01767 3.4357,1.17485 0.3056,0.15719 0.8216,0.28579 1.1467,0.28579 0.325,0 0.6897,0.0987 0.8103,0.21931 0.3908,0.3908 2.5828,1.05092 3.5062,1.05587 0.4944,0.003 2.1769,-0.42685 3.739,-0.95445 1.562,-0.5276 3.3896,-1.04252 4.0611,-1.14426 0.6716,-0.10174 1.581,-0.24799 2.021,-0.32501 2.8925,-0.5063 8.014,-0.68004 9.44,-0.32023 1.8269,0.46095 3.5634,1.47396 5.2605,3.06877 1.1471,1.07794 3.1525,2.51764 4.6595,3.34512 1.717,0.94274 2.7201,1.72439 2.7201,2.11966 0,0.31217 -1.8761,0.92769 -2.7201,0.89242 -0.3519,-0.0147 -2.7999,0.063 -5.44,0.17279 -2.64,0.10975 -6.456,0.26719 -8.48,0.34988 -8.697,0.35527 -10.8758,0.61611 -12.7259,1.52352 -1.585,0.77736 -4.5089,2.35879 -7.0538,3.81515 -3.3265,1.90367 -9.3602,4.73722 -11.4457,5.37518 -1.218,0.37259 -3.8706,1.30978 -5.8946,2.08264 -2.0239,0.77286 -4.688,1.63406 -5.92,1.91378 -1.232,0.27973 -2.7032,0.63345 -3.2694,0.78605 -0.991,0.26708 -22.9887,0.37901 -23.2494,0.11829 z"
     id="path132-4"
     inkscape:connector-curvature="0" />
</svg>
