<?xml version="1.0" encoding="UTF-8" standalone="no"?>
<!-- Created with Inkscape (http://www.inkscape.org/) -->

<svg
   xmlns:dc="http://purl.org/dc/elements/1.1/"
   xmlns:cc="http://creativecommons.org/ns#"
   xmlns:rdf="http://www.w3.org/1999/02/22-rdf-syntax-ns#"
   xmlns:svg="http://www.w3.org/2000/svg"
   xmlns="http://www.w3.org/2000/svg"
   xmlns:sodipodi="http://sodipodi.sourceforge.net/DTD/sodipodi-0.dtd"
   xmlns:inkscape="http://www.inkscape.org/namespaces/inkscape"
   width="135.46666mm"
   height="135.46666mm"
   viewBox="0 0 135.46666 135.46666"
   version="1.1"
   id="svg8"
   inkscape:version="0.92.4 (5da689c313, 2019-01-14)"
   sodipodi:docname="info.svg">
  <defs
     id="defs2" />
  <sodipodi:namedview
     id="base"
     pagecolor="#ffffff"
     bordercolor="#666666"
     borderopacity="1.0"
     inkscape:pageopacity="0.0"
     inkscape:pageshadow="2"
     inkscape:zoom="1.4"
     inkscape:cx="298.31697"
     inkscape:cy="283.89012"
     inkscape:document-units="mm"
     inkscape:current-layer="g38"
     showgrid="false"
     inkscape:window-width="2560"
     inkscape:window-height="1057"
     inkscape:window-x="1912"
     inkscape:window-y="-8"
     inkscape:window-maximized="1" />
  <metadata
     id="metadata5">
    <rdf:RDF>
      <cc:Work
         rdf:about="">
        <dc:format>image/svg+xml</dc:format>
        <dc:type
           rdf:resource="http://purl.org/dc/dcmitype/StillImage" />
        <dc:title></dc:title>
      </cc:Work>
    </rdf:RDF>
  </metadata>
  <g
     inkscape:label="Capa 1"
     inkscape:groupmode="layer"
     id="layer1"
     transform="translate(-51.140184,-94.707143)">
    <g
       id="g38"
       transform="matrix(0.26458333,0,0,0.26458333,50.875601,94.44256)">
      <path
         id="path10"
         d="m 513,235 c 0,14.35423 0,28.70847 -0.40308,43.69183 -1.46502,8.69516 -2.42999,16.7753 -3.60736,24.82438 -3.30826,22.6166 -10.7825,43.9634 -20.56894,64.47738 -9.78598,20.513 -22.18002,39.35349 -37.25814,56.48154 -14.07248,15.98562 -29.49225,30.38034 -46.84827,42.70419 -17.92783,12.72986 -37.27402,22.93372 -57.84622,30.49384 -17.84494,6.55786 -36.23218,11.46688 -55.28614,13.36606 C 287.09668,511.44638 283.05936,512.3338 279,513 c -14.35422,0 -28.70845,0 -43.69177,-0.4032 -8.69631,-1.465 -16.77788,-2.42877 -24.82796,-3.60754 -22.61937,-3.31214 -43.9691,-10.78525 -64.48644,-20.57627 -20.51628,-9.79052 -39.35484,-22.1918 -56.488665,-37.26806 C 73.512978,437.07321 59.125931,421.6405 46.796356,404.28699 34.058994,386.35953 23.700701,367.05057 16.388971,346.39792 11.477326,332.52454 8.640182,317.90878 5.031133,303.58582 3.483048,297.44205 2.331637,291.1983 1,285 1,266.64578 1,248.29155 1.387233,229.32939 2.845637,222.67413 4.054143,216.64735 4.963484,210.57579 8.350621,187.96024 15.750459,166.58894 25.538263,146.0712 35.32436,125.55701 47.705906,106.69321 62.800167,89.569618 76.884872,73.591324 92.278259,59.161259 109.65359,46.843239 127.59709,34.122433 146.93648,23.900856 167.51402,16.336489 185.36372,9.774889 203.75467,4.860088 222.81441,2.960802 226.90083,2.553593 230.93939,1.666194 235,1.000001 249.35423,1 263.70847,1 278.6918,1.403168 c 8.69501,1.465014 16.77509,2.42989 24.82407,3.607196 22.61667,3.308084 43.96347,10.782498 64.47742,20.568936 20.51297,9.785965 39.35363,22.179832 56.48162,37.258041 15.98563,14.07248 30.38038,29.492203 42.70423,46.848209 12.72995,17.92785 22.93368,37.27406 30.49399,57.84623 6.55804,17.84493 11.46676,36.23223 13.36615,55.28615 C 511.44647,226.90318 512.3338,230.94057 513,235 M 260.92648,208.40851 c -1.73489,-0.36533 -3.46566,-1.02205 -5.20538,-1.04662 -8.45628,-0.11946 -17.17484,-1.38185 -25.31155,0.22954 -12.04252,2.38486 -23.74094,6.64752 -35.43882,10.55133 -3.75645,1.2536 -8.35379,3.08977 -10.22928,6.11047 -2.47465,3.98575 -2.64707,9.40087 -3.87312,14.46564 1.579,-0.42923 2.82066,-0.59044 3.90686,-1.08984 8.93711,-4.10919 18.40189,-4.16515 27.91333,-3.59777 7.14908,0.42646 11.80422,3.51221 13.11983,10.01485 1.15924,5.72971 2.13577,12.03888 0.93147,17.60266 -3.63351,16.78687 -8.50125,33.30237 -12.63908,49.98539 -4.8084,19.38659 -11.99979,38.16388 -12.34046,58.65042 -0.2406,14.46948 4.82152,25.7269 16.30558,33.58505 17.42645,11.92435 36.8883,11.27966 56.25415,6.18069 10.9566,-2.88485 21.52499,-7.30316 32.14285,-11.35904 1.82703,-0.69793 3.77396,-2.80737 4.36087,-4.6748 1.30826,-4.16232 1.7919,-8.58386 2.3559,-11.55365 -8.93537,1.15335 -18.17344,3.32403 -27.4021,3.28476 -11.06687,-0.0471 -19.44678,-2.82709 -18.63099,-18.73496 0.45463,-8.86566 1.64295,-17.84469 3.81187,-26.44183 5.45681,-21.62997 11.81362,-43.03113 17.50283,-64.60492 3.39334,-12.8677 5.35504,-26.04297 2.44061,-39.24429 -3.20391,-14.5128 -16.42489,-25.69847 -29.97537,-28.31308 m 8.97599,-107.38348 c -4.70017,2.33103 -9.8628,4.035 -14.02074,7.10127 -18.32468,13.5134 -20.26341,38.49269 -2.29244,54.20553 14.07059,12.30257 35.88657,12.55835 50.85233,1.09192 20.32223,-15.57046 17.23791,-45.16078 -4.23804,-57.73006 -9.17688,-5.37094 -18.99444,-7.067881 -30.30111,-4.66866 z"
         inkscape:connector-curvature="0"
         style="opacity:1;fill:#030104;stroke:none" />
      <path
         id="path20"
         d="m 261.25897,208.67956 c 13.21799,2.34356 26.43897,13.52923 29.64288,28.04203 2.91443,13.20132 0.95273,26.37659 -2.44061,39.24429 -5.68921,21.57379 -12.04602,42.97495 -17.50283,64.60492 -2.16892,8.59714 -3.35724,17.57617 -3.81187,26.44183 -0.81579,15.90787 7.56412,18.68787 18.63099,18.73496 9.22866,0.0393 18.46673,-2.13141 27.4021,-3.28476 -0.564,2.96979 -1.04764,7.39133 -2.3559,11.55365 -0.58691,1.86743 -2.53384,3.97687 -4.36087,4.6748 -10.61786,4.05588 -21.18625,8.47419 -32.14285,11.35904 -19.36585,5.09897 -38.8277,5.74366 -56.25415,-6.18069 -11.48406,-7.85815 -16.54618,-19.11557 -16.30558,-33.58505 0.34067,-20.48654 7.53206,-39.26383 12.34046,-58.65042 4.13783,-16.68302 9.00557,-33.19852 12.63908,-49.98539 1.2043,-5.56378 0.22777,-11.87295 -0.93147,-17.60266 -1.31561,-6.50264 -5.97075,-9.58839 -13.11983,-10.01485 -9.51144,-0.56738 -18.97622,-0.51142 -27.91333,3.59777 -1.0862,0.4994 -2.32786,0.66061 -3.90686,1.08984 1.22605,-5.06477 1.39847,-10.47989 3.87312,-14.46564 1.87549,-3.0207 6.47283,-4.85687 10.22928,-6.11047 11.69788,-3.90381 23.3963,-8.16647 35.43882,-10.55133 8.13671,-1.61139 16.85527,-0.349 25.31155,-0.22954 1.73972,0.0246 3.47049,0.68129 5.53787,1.31767 z"
         inkscape:connector-curvature="0"
         style="opacity:1;fill:#ffffff;stroke:none" />
      <path
         id="path22"
         d="m 270.33618,101.01334 c 10.87296,-2.387531 20.69052,-0.69059 29.8674,4.68035 21.47595,12.56928 24.56027,42.1596 4.23804,57.73006 -14.96576,11.46643 -36.78174,11.21065 -50.85233,-1.09192 -17.97097,-15.71284 -16.03224,-40.69213 2.29244,-54.20553 4.15794,-3.06627 9.32057,-4.77024 14.45445,-7.11296 z"
         inkscape:connector-curvature="0"
         style="opacity:1;fill:#ffffff;stroke:none" />
    </g>
  </g>
</svg>
