<?xml version="1.0" encoding="UTF-8" standalone="no"?>
<svg
   xmlns:dc="http://purl.org/dc/elements/1.1/"
   xmlns:cc="http://creativecommons.org/ns#"
   xmlns:rdf="http://www.w3.org/1999/02/22-rdf-syntax-ns#"
   xmlns:svg="http://www.w3.org/2000/svg"
   xmlns="http://www.w3.org/2000/svg"
   xmlns:sodipodi="http://sodipodi.sourceforge.net/DTD/sodipodi-0.dtd"
   xmlns:inkscape="http://www.inkscape.org/namespaces/inkscape"
   version="1.1"
   id="Layer_1"
   x="0px"
   y="0px"
   width="100%"
   viewBox="0 0 823 774"
   enable-background="new 0 0 823 774"
   xml:space="preserve"
   sodipodi:docname="moonbeam.svg"
   inkscape:version="0.92.4 (5da689c313, 2019-01-14)"><metadata
   id="metadata37"><rdf:RDF><cc:Work
       rdf:about=""><dc:format>image/svg+xml</dc:format><dc:type
         rdf:resource="http://purl.org/dc/dcmitype/StillImage" /></cc:Work></rdf:RDF></metadata><defs
   id="defs35" /><sodipodi:namedview
   pagecolor="#ffffff"
   bordercolor="#666666"
   borderopacity="1"
   objecttolerance="10"
   gridtolerance="10"
   guidetolerance="10"
   inkscape:pageopacity="0"
   inkscape:pageshadow="2"
   inkscape:window-width="1748"
   inkscape:window-height="1044"
   id="namedview33"
   showgrid="false"
   inkscape:zoom="0.86241447"
   inkscape:cx="563.82437"
   inkscape:cy="503.29043"
   inkscape:window-x="1915"
   inkscape:window-y="2"
   inkscape:window-maximized="0"
   inkscape:current-layer="Layer_1" />

<path
   fill="#53CBC8"
   opacity="1.000000"
   stroke="none"
   d=" M473.000000,338.000488   C414.345459,338.000488 356.190399,337.869690 298.036804,338.105743   C285.732178,338.155701 283.160645,336.330170 284.115784,322.715515   C285.203125,307.217010 287.866089,291.919250 293.389191,277.302551   C300.215546,259.236816 309.546356,242.706833 322.313812,227.985077   C336.102783,212.085464 352.455780,199.757706 371.142975,190.512283   C387.379272,182.479416 404.646912,177.863602 422.744049,175.875336   C454.684326,172.366196 484.690643,178.532883 512.792480,193.539215   C529.351013,202.381439 543.764404,214.087021 556.215149,228.457657   C576.546509,251.924149 588.103027,279.086945 592.834595,309.421906   C593.723877,315.123383 593.842834,320.973389 593.951538,326.761688   C594.120972,335.781891 591.828369,337.997406 582.976807,337.998505   C546.484558,338.002930 509.992279,338.000427 473.000000,338.000488  z"
   id="path4" />
<path
   fill="#E1147B"
   opacity="1.000000"
   stroke="none"
   d=" M484.000000,365.000427   C528.497620,365.000458 572.495605,365.092102 616.492188,364.877472   C621.642151,364.852325 625.153748,366.949066 626.672729,371.056091   C628.224304,375.251190 626.983948,379.762390 622.877380,382.486969   C621.375061,383.483643 619.239563,383.929291 617.389954,383.937439   C595.558167,384.033936 573.725952,383.999817 551.893799,383.999786   C455.232391,383.999786 358.570984,383.974030 261.909668,384.070587   C256.743011,384.075745 253.026184,382.238434 251.378342,377.556580   C249.871628,373.275818 251.221863,369.187897 255.066010,366.597504   C256.675812,365.512726 259.007660,365.066986 261.012360,365.063873   C312.509430,364.983643 364.006653,365.000488 415.503845,365.000427   C438.169220,365.000397 460.834625,365.000427 484.000000,365.000427  z"
   id="path6" />
<path
   fill="#E1147B"
   opacity="1.000000"
   stroke="none"
   d=" M452.000000,449.999207   C493.166595,449.999420 533.833191,449.991638 574.499817,450.007355   C581.596985,450.010101 585.241211,453.800720 584.996155,460.785797   C584.810669,466.071564 581.557251,469.147095 575.209900,469.946350   C574.060181,470.091125 572.879333,469.999756 571.712891,469.999756   C469.213074,470.001343 366.713226,470.002960 264.213409,469.998016   C255.717621,469.997620 250.661942,465.685425 251.006317,458.791107   C251.238098,454.150574 254.870178,450.365936 259.501587,450.028229   C260.993927,449.919403 262.500336,449.999725 264.000305,449.999725   C326.500214,449.999115 389.000092,449.999207 452.000000,449.999207  z"
   id="path8" />
<path
   fill="#E1147B"
   opacity="1.000000"
   stroke="none"
   d=" M448.538544,426.996948   C362.101715,426.998962 276.114502,426.966949 190.127426,427.080902   C185.014450,427.087677 181.319336,425.257629 179.155762,420.961975   C176.109406,414.913574 180.545517,407.985992 187.760193,407.054504   C188.908875,406.906219 190.090256,407.000397 191.256516,407.000366   C276.077240,406.998718 360.897980,406.976837 445.718536,407.090240   C448.695251,407.094208 452.022675,407.839325 454.559845,409.315948   C458.010345,411.324188 460.179138,414.990295 458.740753,419.089081   C457.211151,423.447998 454.201385,426.787140 448.538544,426.996948  z"
   id="path10" />
<path
   fill="#E1147B"
   opacity="1.000000"
   stroke="none"
   d=" M391.000000,493.000061   C470.798492,493.000244 550.096985,493.020050 629.395447,492.949005   C633.890015,492.944977 637.489990,494.210388 638.681152,498.652832   C639.844055,502.990356 639.331116,507.446869 635.109314,510.187500   C633.428528,511.278625 631.134033,511.925140 629.118103,511.927063   C542.322937,512.010620 455.527740,512.006287 368.732513,511.981598   C362.836700,511.979919 358.981934,508.085144 359.003357,502.451355   C359.025787,496.556885 362.553070,493.026947 368.510010,493.006561   C375.839935,492.981506 383.169983,493.000244 391.000000,493.000061  z"
   id="path12" />
<path
   fill="#E1147B"
   opacity="1.000000"
   stroke="none"
   d=" M428.054565,534.999756   C478.824188,534.999878 529.103088,534.994202 579.382019,535.006714   C586.649414,535.008545 590.914978,538.471619 590.996887,544.320007   C591.076416,550.000671 586.552429,554.791138 580.824585,554.977539   C577.830933,555.075012 574.831665,554.998108 571.834900,554.998169   C522.554871,554.998291 473.274902,554.984436 423.994934,555.022278   C419.706299,555.025574 415.696808,554.330078 413.009583,550.733276   C408.072906,544.125610 411.829010,535.859558 420.075623,535.054565   C422.549927,534.813110 425.066620,535.005859 428.054565,534.999756  z"
   id="path14" />
<path
   fill="#E1147B"
   opacity="1.000000"
   stroke="none"
   d=" M423.000000,577.999451   C443.152679,577.999634 462.805389,577.988342 482.458069,578.006653   C488.845245,578.012573 492.831573,581.566589 492.982269,587.289429   C493.133331,593.025269 488.789856,596.993591 482.270203,596.994629   C429.307861,597.003296 376.345490,596.964539 323.383301,597.056580   C318.421204,597.065186 314.898315,594.966858 313.186554,590.712219   C311.442841,586.378357 313.480103,581.410583 317.447845,579.192932   C319.045349,578.299988 321.179626,578.050659 323.070709,578.046875   C356.213715,577.981445 389.356873,577.999512 423.000000,577.999451  z"
   id="path16" />
<path
   fill="#E1147B"
   opacity="1.000000"
   stroke="none"
   d=" M202.149719,493.489685   C209.125031,493.147125 215.777817,493.013763 222.430679,493.009949   C258.719482,492.989136 295.008301,492.996063 331.297119,493.004822   C336.776154,493.006134 340.938202,496.860168 340.991913,501.913544   C341.050629,507.436737 336.697235,511.979675 331.119965,511.983429   C289.670837,512.011353 248.221664,511.973724 206.772598,512.032654   C202.169861,512.039246 199.064270,509.876038 197.532455,505.882141   C195.603790,500.853516 197.812302,496.889679 202.149719,493.489685  z"
   id="path18" />
<path
   fill="#E1147B"
   opacity="1.000000"
   stroke="none"
   d=" M234.227600,452.776733   C238.571625,461.212402 236.641037,467.256317 229.515762,469.054413   C224.740982,470.259369 220.988663,468.433167 218.524109,464.750824   C215.878525,460.797974 216.769394,456.464569 219.740524,452.899384   C222.794891,449.234406 226.936783,449.382172 231.080109,450.649170   C232.129974,450.970215 233.006409,451.858398 234.227600,452.776733  z"
   id="path20" />
<path
   fill="#E1147B"
   opacity="1.000000"
   stroke="none"
   d=" M163.996704,417.820343   C162.755661,424.548157 158.845474,427.667053 153.028214,426.979828   C147.763596,426.357910 144.427811,421.493774 145.013046,415.292419   C145.451218,410.649628 149.638275,406.997772 154.504211,407.014404   C160.074844,407.033447 163.768143,411.076691 163.996704,417.820343  z"
   id="path22" />
<path
   fill="#E1147B"
   opacity="1.000000"
   stroke="none"
   d=" M377.197876,547.344482   C376.559479,541.526367 378.862518,537.746277 383.856354,535.646545   C387.961243,533.920654 391.173492,535.473633 394.025513,538.505676   C398.250763,542.997681 398.149536,547.434326 393.590881,551.901001   C389.277649,556.127197 384.820862,556.225952 380.588379,552.025269   C379.321869,550.768311 378.395660,549.168518 377.197876,547.344482  z"
   id="path24" />
<path
   fill="#E1147B"
   opacity="1.000000"
   stroke="none"
   d=" M223.724594,383.821075   C218.241043,380.725891 215.962784,376.232758 217.439804,372.102478   C219.468948,366.428253 222.787689,364.367157 228.850464,365.015869   C233.446533,365.507660 237.064178,369.783417 236.983627,374.628662   C236.902283,379.521271 233.263474,383.620575 228.596252,383.967438   C227.113434,384.077606 225.612625,383.945862 223.724594,383.821075  z"
   id="path26" />
<path
   fill="#E1147B"
   opacity="1.000000"
   stroke="none"
   d=" M166.902054,494.660095   C171.109421,494.430450 175.548218,493.312805 178.823013,494.784790   C183.928162,497.079437 184.294907,503.177704 180.772568,508.477783   C178.255600,512.265015 171.445679,513.400574 167.399734,510.707764   C163.288651,507.971619 162.028351,501.110992 164.880035,496.709076   C165.320831,496.028625 166.027817,495.520630 166.902054,494.660095  z"
   id="path28" />
<path
   fill="#E1147B"
   opacity="1.000000"
   stroke="none"
   d=" M279.049255,585.483154   C281.010315,579.980896 284.578644,577.404480 290.134430,578.014587   C294.056610,578.445251 297.460327,580.401794 297.759277,584.329712   C298.017822,587.726379 297.564453,592.425415 295.433502,594.415527   C293.160187,596.538635 288.085541,597.502747 285.098694,596.470459   C282.451599,595.555542 280.925812,591.248901 279.061920,588.339050   C278.686646,587.753174 279.016083,586.715820 279.049255,585.483154  z"
   id="path30" />
</svg>