<svg version="1.1" id="Layer_1" xmlns="http://www.w3.org/2000/svg" xmlns:xlink="http://www.w3.org/1999/xlink" x="0px" y="0px"
	 width="100%" viewBox="0 0 225 225" enable-background="new 0 0 225 225" xml:space="preserve">
<path fill="#005741" opacity="1.000000" stroke="none" 
	d="
M156.000000,226.000000 
	C104.000000,226.000000 52.500008,226.000000 1.000007,226.000000 
	C1.000005,151.000000 1.000005,76.000015 1.000002,1.000017 
	C75.999992,1.000011 150.999985,1.000011 225.999969,1.000006 
	C225.999985,75.999985 225.999985,150.999969 226.000000,225.999969 
	C202.833328,226.000000 179.666672,226.000000 156.000000,226.000000 
M142.364380,139.076599 
	C142.304871,139.193710 142.167709,139.343414 142.200607,139.421753 
	C142.293655,139.643478 142.456329,139.835983 142.713181,140.939819 
	C142.672455,144.258224 142.631714,147.576645 141.848251,151.191772 
	C140.257309,151.541733 138.667648,152.189041 137.075226,152.195908 
	C120.142929,152.269028 103.209946,152.282242 86.277916,152.181870 
	C84.369011,152.170578 82.464851,151.360062 80.575294,150.100998 
	C81.440536,142.439896 85.137360,136.025894 90.696007,131.130249 
	C106.539803,117.176224 122.743050,103.630325 139.504501,90.337097 
	C140.002533,92.149643 140.888290,93.953255 140.930298,95.776306 
	C141.096741,103.000168 140.895126,110.232819 141.083435,117.455597 
	C141.123199,118.980766 142.232513,120.478043 143.426483,122.636017 
	C147.080841,122.693825 150.762115,122.494835 154.382812,122.874016 
	C158.975494,123.354980 159.979813,121.315689 159.941330,117.128975 
	C159.768707,98.340050 159.885452,79.548576 159.825485,60.758259 
	C159.820450,59.182957 159.278351,57.609371 158.363953,55.485924 
	C157.392578,55.324902 156.421310,55.024025 155.449799,55.023178 
	C126.026794,54.997520 96.603729,54.985744 67.180840,55.049988 
	C65.804276,55.052998 64.429291,55.775154 62.888474,57.067154 
	C62.888474,67.625854 62.888474,78.184555 62.888474,89.400528 
	C68.969223,88.897301 74.468292,88.442207 80.395103,87.298103 
	C80.530487,84.996712 80.959312,82.666748 80.738602,80.400024 
	C80.312576,76.024673 81.997101,74.624641 86.376083,74.719368 
	C98.298187,74.977272 110.230644,74.730431 122.155731,74.905853 
	C123.768684,74.929573 125.362885,76.227951 126.800789,77.199921 
	C126.800789,77.199921 126.509514,77.309296 125.930458,77.454056 
	C125.697906,77.763832 125.465355,78.073608 124.862778,78.927628 
	C111.487869,90.345070 98.117859,101.768250 84.736595,113.178230 
	C72.703636,123.438545 64.227486,135.694290 62.496532,152.466522 
	C62.576435,153.657272 62.656342,154.848007 62.820847,156.961060 
	C62.898666,161.587769 62.976482,166.214478 63.629944,171.439911 
	C64.922745,171.626511 66.215378,171.974625 67.508377,171.976013 
	C96.538437,172.007050 125.568558,172.009293 154.598602,171.972672 
	C156.053223,171.970825 157.507339,171.569901 159.607422,170.863785 
	C159.731140,169.569458 159.854874,168.275146 159.879761,166.245178 
	C159.912354,165.505173 159.944931,164.765182 160.116211,163.501740 
	C160.070282,163.327179 160.024353,163.152618 159.880371,162.049423 
	C159.914276,156.371918 159.948196,150.694412 160.121109,144.500610 
	C160.075211,144.328384 160.029327,144.156174 159.885895,143.330597 
	C159.917572,142.892563 159.949265,142.454544 160.191711,141.251404 
	C159.713409,140.211853 159.235107,139.172318 157.864075,138.226685 
	C153.616852,138.180923 149.369644,138.135147 144.542175,137.869019 
	C143.990326,138.065323 143.438461,138.261627 142.904160,138.719849 
	C142.904160,138.719849 142.722473,138.909332 142.364380,139.076599 
z"/>
<path fill="#F9FCFB" opacity="1.000000" stroke="none" 
	d="
M63.054302,170.841187 
	C62.976482,166.214478 62.898666,161.587769 62.897057,156.106003 
	C62.946056,154.158737 62.918850,153.066513 62.891644,151.974304 
	C64.227486,135.694290 72.703636,123.438545 84.736595,113.178230 
	C98.117859,101.768250 111.487869,90.345070 125.329895,78.570038 
	C126.034515,77.911392 126.272011,77.610344 126.509514,77.309296 
	C126.509514,77.309296 126.800789,77.199921 127.196060,76.976227 
	C128.886063,76.178291 130.180801,75.604042 131.475525,75.029793 
	C130.953964,74.575249 130.432388,74.120697 129.910812,73.666153 
	C113.282372,73.666153 96.653923,73.666153 79.967369,73.666153 
	C79.967369,78.727844 79.967369,83.357483 79.967369,87.987114 
	C74.468292,88.442207 68.969223,88.897301 62.888474,89.400528 
	C62.888474,78.184555 62.888474,67.625854 63.435863,56.621834 
	C95.650757,56.129337 127.318260,56.082161 158.985764,56.034988 
	C159.278351,57.609371 159.820450,59.182957 159.825485,60.758259 
	C159.885452,79.548576 159.768707,98.340050 159.941330,117.128975 
	C159.979813,121.315689 158.975494,123.354980 154.382812,122.874016 
	C150.762115,122.494835 147.080841,122.693825 143.136963,121.844376 
	C142.847458,109.810875 142.847458,98.569016 142.847458,87.327156 
	C142.336899,87.034439 141.826355,86.741730 141.315796,86.449013 
	C140.478821,87.607292 139.641861,88.765572 138.804871,89.923851 
	C122.743050,103.630325 106.539803,117.176224 90.696007,131.130249 
	C85.137360,136.025894 81.440536,142.439896 80.374252,150.826050 
	C80.932587,152.282486 81.688148,153.647919 82.451920,153.652527 
	C101.649071,153.768280 120.847382,153.777466 140.043945,153.618179 
	C140.900436,153.611069 141.742310,151.842926 142.590988,150.895050 
	C142.631714,147.576645 142.672455,144.258224 142.763992,140.216339 
	C142.784012,139.298325 142.753235,139.103821 142.722473,138.909332 
	C142.722473,138.909332 142.904160,138.719849 143.179688,138.551300 
	C144.010941,138.284958 144.566681,138.187164 145.122421,138.089386 
	C149.369644,138.135147 153.616852,138.180923 158.538177,138.449539 
	C159.468506,139.787094 159.724731,140.901810 159.980957,142.016510 
	C159.949265,142.454544 159.917572,142.892563 159.822754,143.762848 
	C159.657547,144.531006 159.731720,144.804932 159.982117,145.016907 
	C159.948196,150.694412 159.914276,156.371918 159.818466,162.621735 
	C159.655869,163.531265 159.729523,163.808304 159.977524,164.025177 
	C159.944931,164.765182 159.912354,165.505173 159.815979,166.983154 
	C160.106842,171.777084 156.680115,170.109909 154.436249,170.882706 
	C123.668846,170.837708 93.361572,170.839447 63.054302,170.841187 
z"/>
<path fill="#3A7566" opacity="1.000000" stroke="none" 
	d="
M142.219635,151.043427 
	C141.742310,151.842926 140.900436,153.611069 140.043945,153.618179 
	C120.847382,153.777466 101.649071,153.768280 82.451920,153.652527 
	C81.688148,153.647919 80.932587,152.282486 80.365845,151.235626 
	C82.464851,151.360062 84.369011,152.170578 86.277916,152.181870 
	C103.209946,152.282242 120.142929,152.269028 137.075226,152.195908 
	C138.667648,152.189041 140.257309,151.541733 142.219635,151.043427 
z"/>
<path fill="#357162" opacity="1.000000" stroke="none" 
	d="
M80.181236,87.642609 
	C79.967369,83.357483 79.967369,78.727844 79.967369,73.666153 
	C96.653923,73.666153 113.282372,73.666153 129.910812,73.666153 
	C130.432388,74.120697 130.953964,74.575249 131.475525,75.029793 
	C130.180801,75.604042 128.886063,76.178291 127.278549,76.844330 
	C125.362885,76.227951 123.768684,74.929573 122.155731,74.905853 
	C110.230644,74.730431 98.298187,74.977272 86.376083,74.719368 
	C81.997101,74.624641 80.312576,76.024673 80.738602,80.400024 
	C80.959312,82.666748 80.530487,84.996712 80.181236,87.642609 
z"/>
<path fill="#00462D" opacity="1.000000" stroke="none" 
	d="
M158.674866,55.760456 
	C127.318260,56.082161 95.650757,56.129337 63.518410,56.169449 
	C64.429291,55.775154 65.804276,55.052998 67.180840,55.049988 
	C96.603729,54.985744 126.026794,54.997520 155.449799,55.023178 
	C156.421310,55.024025 157.392578,55.324902 158.674866,55.760456 
z"/>
<path fill="#00462D" opacity="1.000000" stroke="none" 
	d="
M63.342125,171.140549 
	C93.361572,170.839447 123.668846,170.837708 154.827881,171.008820 
	C156.773666,171.239380 157.867691,171.297089 158.961700,171.354813 
	C157.507339,171.569901 156.053223,171.970825 154.598602,171.972672 
	C125.568558,172.009293 96.538437,172.007050 67.508377,171.976013 
	C66.215378,171.974625 64.922745,171.626511 63.342125,171.140549 
z"/>
<path fill="#025039" opacity="1.000000" stroke="none" 
	d="
M139.154694,90.130478 
	C139.641861,88.765572 140.478821,87.607292 141.315796,86.449013 
	C141.826355,86.741730 142.336899,87.034439 142.847458,87.327156 
	C142.847458,98.569016 142.847458,109.810875 142.848236,121.520454 
	C142.232513,120.478043 141.123199,118.980766 141.083435,117.455597 
	C140.895126,110.232819 141.096741,103.000168 140.930298,95.776306 
	C140.888290,93.953255 140.002533,92.149643 139.154694,90.130478 
z"/>
<path fill="#3A7566" opacity="1.000000" stroke="none" 
	d="
M159.284561,171.109299 
	C157.867691,171.297089 156.773666,171.239380 155.288025,171.055542 
	C156.680115,170.109909 160.106842,171.777084 159.865417,167.350967 
	C159.854874,168.275146 159.731140,169.569458 159.284561,171.109299 
z"/>
<path fill="#3A7566" opacity="1.000000" stroke="none" 
	d="
M160.086334,141.633957 
	C159.724731,140.901810 159.468506,139.787094 158.984543,138.402588 
	C159.235107,139.172318 159.713409,140.211853 160.086334,141.633957 
z"/>
<path fill="#3A7566" opacity="1.000000" stroke="none" 
	d="
M62.694088,152.220413 
	C62.918850,153.066513 62.946056,154.158737 62.854752,155.644852 
	C62.656342,154.848007 62.576435,153.657272 62.694088,152.220413 
z"/>
<path fill="#3A7566" opacity="1.000000" stroke="none" 
	d="
M144.832306,137.979187 
	C144.566681,138.187164 144.010941,138.284958 143.170898,138.420349 
	C143.438461,138.261627 143.990326,138.065323 144.832306,137.979187 
z"/>
<path fill="#357162" opacity="1.000000" stroke="none" 
	d="
M126.219986,77.381676 
	C126.272011,77.610344 126.034515,77.911392 125.514908,78.297920 
	C125.465355,78.073608 125.697906,77.763832 126.219986,77.381676 
z"/>
<path fill="#3A7566" opacity="1.000000" stroke="none" 
	d="
M142.543427,138.992966 
	C142.753235,139.103821 142.784012,139.298325 142.703186,139.766418 
	C142.456329,139.835983 142.293655,139.643478 142.200607,139.421753 
	C142.167709,139.343414 142.304871,139.193710 142.543427,138.992966 
z"/>
<path fill="#3A7566" opacity="1.000000" stroke="none" 
	d="
M160.051605,144.758759 
	C159.731720,144.804932 159.657547,144.531006 159.871552,144.089539 
	C160.029327,144.156174 160.075211,144.328384 160.051605,144.758759 
z"/>
<path fill="#3A7566" opacity="1.000000" stroke="none" 
	d="
M160.046875,163.763458 
	C159.729523,163.808304 159.655869,163.531265 159.867493,163.086044 
	C160.024353,163.152618 160.070282,163.327179 160.046875,163.763458 
z"/>
</svg>